<svg id="mailing" xmlns="http://www.w3.org/2000/svg" xmlns:xlink="http://www.w3.org/1999/xlink" viewBox="0 0 294.24 136.14"><defs><style>.cls-1{fill:#d3255c;}.cls-2{fill:#2c368b;}.cls-3{fill:url(#linear-gradient);}.cls-4{fill:url(#linear-gradient-2);}.cls-5{fill:url(#linear-gradient-3);}</style><linearGradient id="linear-gradient" x1="1190.1" y1="2041.06" x2="1246.76" y2="2041.06" gradientUnits="userSpaceOnUse"><stop offset="0" stop-color="#313178"/><stop offset="0.97" stop-color="#2c3589"/><stop offset="1" stop-color="#2b368a"/></linearGradient><linearGradient id="linear-gradient-2" x1="1233" y1="2042.94" x2="1283.64" y2="2042.94" gradientUnits="userSpaceOnUse"><stop offset="0" stop-color="#16b79d"/><stop offset="1" stop-color="#53c0ae"/></linearGradient><linearGradient id="linear-gradient-3" x1="0.17" y1="126.84" x2="42.9" y2="126.84" gradientUnits="userSpaceOnUse"><stop offset="0" stop-color="#faab31"/><stop offset="0.59" stop-color="#f8a127"/><stop offset="0.99" stop-color="#f7981d"/></linearGradient></defs><title>lima_local</title><path class="cls-1" d="M1321.38,2007.69s0-.1,0-.16a4,4,0,0,0-8.08,0,2.85,2.85,0,0,0,0,.41v47.83h30.32v-8h-22.29Z" transform="translate(-1190.1 -1974.87)"/><path class="cls-1" d="M1425.43,2024.38a17.91,17.91,0,0,0-6-4.18,20.3,20.3,0,0,0-8.2-1.56,20.64,20.64,0,0,0-7.67,1.23,19.23,19.23,0,0,0-4.82,2.67,12.48,12.48,0,0,0-3.23,3.91,14.83,14.83,0,0,0-4.71-4.91,18.19,18.19,0,0,0-5.16-2.28,20.66,20.66,0,0,0-5.85-.62,18.79,18.79,0,0,0-5.21.56,22.72,22.72,0,0,0-3.88,1.39,17.18,17.18,0,0,0-3.29,2.07v-3h-6.69v36.12h6.69v-18.06a15.16,15.16,0,0,1,1.56-6.19,11.1,11.1,0,0,1,1.48-2.26,12.05,12.05,0,0,1,2.2-2,10.81,10.81,0,0,1,3-1.42,16.12,16.12,0,0,1,8.2,0,10.62,10.62,0,0,1,3,1.42,11,11,0,0,1,2.18,2,13.84,13.84,0,0,1,1.5,2.26,14.85,14.85,0,0,1,1.56,6.19v18.06h6.7v-18.06a15.16,15.16,0,0,1,1.55-6.19,11.1,11.1,0,0,1,1.48-2.26,11.8,11.8,0,0,1,2.21-2,10.62,10.62,0,0,1,3-1.42,16.12,16.12,0,0,1,8.2,0,10.81,10.81,0,0,1,3,1.42,10.94,10.94,0,0,1,2.17,2,13.29,13.29,0,0,1,1.51,2.26,15,15,0,0,1,1.56,6.19v18.06h6.69v-18.06a21.44,21.44,0,0,0-1.23-7.25,17.48,17.48,0,0,0-3.65-6.08" transform="translate(-1190.1 -1974.87)"/><path class="cls-1" d="M1463.2,2042.25a14.62,14.62,0,0,1-6.77,6.77,10.27,10.27,0,0,1-9.09,0,14.22,14.22,0,0,1-4-2.81,14.46,14.46,0,0,1-2.82-4,10.36,10.36,0,0,1,0-9.09,14.58,14.58,0,0,1,6.78-6.77,10.27,10.27,0,0,1,9.09,0,14.75,14.75,0,0,1,4,2.81,14.55,14.55,0,0,1,2.82,4,10.27,10.27,0,0,1,0,9.09m1.06-22.6v3.56c-.56-.48-1.2-1-1.93-1.53a14,14,0,0,0-2.56-1.48,18.09,18.09,0,0,0-3.4-1.11,19.86,19.86,0,0,0-4.49-.45,18.22,18.22,0,0,0-7.41,1.51,19.3,19.3,0,0,0-10.15,10.14,19.08,19.08,0,0,0,0,14.83,19.37,19.37,0,0,0,10.15,10.15,19.41,19.41,0,0,0,12.07.95,21.34,21.34,0,0,0,3.67-1.32,16.16,16.16,0,0,0,2.63-1.5,9.44,9.44,0,0,0,1.42-1.2v3.57H1471v-36.12Z" transform="translate(-1190.1 -1974.87)"/><rect class="cls-1" x="159.43" y="44.77" width="6.69" height="36.12"/><path class="cls-2" d="M1369.92,2086.78a14.38,14.38,0,0,1-7.59,7.59,14.36,14.36,0,0,1-11.12,0,14.38,14.38,0,0,1-7.59-7.59,14.36,14.36,0,0,1,0-11.12,14.38,14.38,0,0,1,7.59-7.59,14.36,14.36,0,0,1,11.12,0,14.38,14.38,0,0,1,7.59,7.59,14.36,14.36,0,0,1,0,11.12m2.37-21a22.62,22.62,0,0,0-7-4.79,20.84,20.84,0,0,0-8.55-1.76,21.11,21.11,0,0,0-8.55,1.73,22.31,22.31,0,0,0-11.7,11.7,21.88,21.88,0,0,0,0,17.1,22.21,22.21,0,0,0,11.7,11.7,21.88,21.88,0,0,0,17.1,0,22.31,22.31,0,0,0,11.7-11.7,21.15,21.15,0,0,0,1.73-8.55,20.81,20.81,0,0,0-1.73-8.42,22.81,22.81,0,0,0-4.73-7" transform="translate(-1190.1 -1974.87)"/><path class="cls-2" d="M1393.57,2071.13a14.59,14.59,0,0,1,4.54-3.06,13.81,13.81,0,0,1,5.56-1.12,17.74,17.74,0,0,1,5.39.8,14.67,14.67,0,0,1,4.38,2.22,10.64,10.64,0,0,1,2.92,3.31,8.22,8.22,0,0,1,1.06,4.08h7.91a15.27,15.27,0,0,0-1.7-7,18.38,18.38,0,0,0-4.66-5.75,23.56,23.56,0,0,0-6.88-3.89,24.26,24.26,0,0,0-8.42-1.45,21.09,21.09,0,0,0-8.55,1.74,22.31,22.31,0,0,0-11.7,11.7,21.88,21.88,0,0,0,0,17.1,22.31,22.31,0,0,0,11.7,11.7,21.09,21.09,0,0,0,8.55,1.74,24.26,24.26,0,0,0,8.42-1.45,23.34,23.34,0,0,0,6.88-3.89,18.27,18.27,0,0,0,4.66-5.75,15.27,15.27,0,0,0,1.7-7h-7.91a8.17,8.17,0,0,1-1.06,4.08,10.53,10.53,0,0,1-2.92,3.31,14.67,14.67,0,0,1-4.38,2.22,17.44,17.44,0,0,1-5.39.8,13.81,13.81,0,0,1-5.56-1.12,14.29,14.29,0,0,1-7.59-7.59,14.24,14.24,0,0,1,0-11.12,14.52,14.52,0,0,1,3-4.53" transform="translate(-1190.1 -1974.87)"/><path class="cls-2" d="M1462.83,2086.46a16.8,16.8,0,0,1-7.81,7.81,11.86,11.86,0,0,1-10.48,0A16.32,16.32,0,0,1,1440,2091a16.74,16.74,0,0,1-3.25-4.56,11.86,11.86,0,0,1,0-10.48,16.93,16.93,0,0,1,7.81-7.81,11.86,11.86,0,0,1,10.48,0,16.78,16.78,0,0,1,4.57,3.25,16.49,16.49,0,0,1,3.24,4.56,11.86,11.86,0,0,1,0,10.48m1.22-21.95q-1-.84-2.22-1.77a16.36,16.36,0,0,0-2.95-1.71,21.47,21.47,0,0,0-3.92-1.28,23.35,23.35,0,0,0-5.18-.51,21.15,21.15,0,0,0-8.55,1.73,22.4,22.4,0,0,0-11.7,11.7,22,22,0,0,0,0,17.1,22.4,22.4,0,0,0,11.7,11.7,21.15,21.15,0,0,0,8.55,1.74,20.8,20.8,0,0,0,5.37-.65,24.79,24.79,0,0,0,4.24-1.51,18.81,18.81,0,0,0,3-1.73,10.71,10.71,0,0,0,1.64-1.38v4.11h7.72v-41.66h-7.72Z" transform="translate(-1190.1 -1974.87)"/><path class="cls-2" d="M1484.34,2041.84a3.86,3.86,0,1,0-7.71,0v0h0v60.17h7.72v-60.21" transform="translate(-1190.1 -1974.87)"/><polygon class="cls-2" points="109.81 71.64 109.81 127.18 144.78 127.18 144.78 117.92 119.07 117.92 119.07 71.64 109.81 71.64"/><path class="cls-3" d="M1190.26,1994l-.16,0v98.47h56.66v-95.19h0s0,0,0,0c0-2.14-2.07-3.91-4.78-4.24v0l-44.58-3.14a7,7,0,0,0-1.46-.15c-3.13,0-5.67,1.92-5.67,4.3" transform="translate(-1190.1 -1974.87)"/><path class="cls-4" d="M1233,1980.16V2111l50.64-9.85s-.14-107.77,0-112.13-2.18-5.34-4.67-5.87-35.75-7.39-39.38-8.12a8.54,8.54,0,0,0-1.64-.17c-2.84,0-5,1.69-5,5.29" transform="translate(-1190.1 -1974.87)"/><polygon class="cls-5" points="42.9 117.55 7.38 117.57 0.17 117.54 42.83 136.14 42.83 136.14 42.9 136.06 42.9 117.55"/></svg>