<?xml version="1.0" encoding="utf-8"?>
<!-- Generator: Adobe Illustrator 24.0.1, SVG Export Plug-In . SVG Version: 6.00 Build 0)  -->
<svg version="1.1" id="Capa_1" xmlns="http://www.w3.org/2000/svg" xmlns:xlink="http://www.w3.org/1999/xlink" x="0px" y="0px"
	 viewBox="0 0 200 200" style="enable-background:new 0 0 200 200;" xml:space="preserve">
<style type="text/css">
	.st0{fill:#243774;}
	.st1{fill:#EB6B3F;}
	.st2{fill:#FFFFFF;}
</style>
<g>
	<g>
		<path class="st0" d="M167.5,154.3H32.5c-7.3,0-13.3-5.9-13.3-13.3V38c0-7.3,5.9-13.3,13.3-13.3h135.1c7.3,0,13.3,5.9,13.3,13.3
			v103C180.8,148.3,174.9,154.3,167.5,154.3z M32.5,29.7c-4.6,0-8.3,3.7-8.3,8.3v103c0,4.6,3.7,8.3,8.3,8.3h135.1
			c4.6,0,8.3-3.7,8.3-8.3V38c0-4.6-3.7-8.3-8.3-8.3H32.5z"/>
	</g>
	<g>
		<rect x="22.3" y="128.4" class="st0" width="155.4" height="4.9"/>
	</g>
	<polygon class="st0" points="124.7,170.3 124.7,160.4 119.7,160.4 119.7,170.3 80.3,170.3 80.3,160.4 75.3,160.4 75.3,170.3 
		65.5,170.3 65.5,175.3 134.5,175.3 134.5,170.3 	"/>
	<g>
		<g>
			<g>
				<path class="st1" d="M136.4,60.4l-0.4-0.7l-7.4,4.3c-2.3-3.6-5.1-6.7-8.5-9.2l5-7l-0.6-0.4c-4-2.9-8.5-5-13.3-6.3l-0.7-0.2
					l-2.3,8.3c-4.1-1-8.5-1.3-12.9-0.7L94,40.1l-0.8,0.1c-5.5,0.9-10.8,2.9-15.5,5.9L77,46.5l4.5,7.3c-3.4,2.2-6.3,5-8.6,8.2l-7-4.9
					l-0.4,0.6c-2.8,4-4.9,8.5-6.1,13.2l-0.2,0.7l8.3,2.2c-1,4.2-1.3,8.7-0.6,13.1l-8.4,1.5l0.1,0.8c0.4,2.4,1.1,4.8,2,7.2
					c0.9,2.4,2,4.7,3.3,6.9l0.4,0.7l7.4-4.4c2.4,3.8,5.5,7.1,9.1,9.6l-4.8,7.1l0.6,0.4c3.9,2.6,8.1,4.6,12.7,5.8l0.7,0.2l2.2-8.3
					c4.2,1,8.6,1.3,13.1,0.6l1.5,8.4l0.8-0.1c2.5-0.4,4.9-1.1,7.2-2c2.5-0.9,4.9-2.1,7.2-3.4l0.7-0.4l-4.4-7.3
					c3.6-2.3,6.7-5.2,9.1-8.5l7,4.9l0.4-0.6c2.9-4.1,5-8.7,6.2-13.5l0.2-0.7l-8.3-2.2c1-4.3,1.2-8.9,0.4-13.5l8.4-1.7l-0.2-0.8
					c-0.4-2.1-1-4.3-1.8-6.3C138.8,64.9,137.7,62.6,136.4,60.4z"/>
			</g>
		</g>
		<circle class="st2" cx="100" cy="81.8" r="22.5"/>
	</g>
</g>
</svg>
