<?xml version="1.0" encoding="utf-8"?>
<!-- Generator: Adobe Illustrator 24.0.1, SVG Export Plug-In . SVG Version: 6.00 Build 0)  -->
<svg version="1.1" id="Capa_1" xmlns="http://www.w3.org/2000/svg" xmlns:xlink="http://www.w3.org/1999/xlink" x="0px" y="0px"
	 viewBox="0 0 200 200" style="enable-background:new 0 0 200 200;" xml:space="preserve">
<style type="text/css">
	.st0{fill:#A0D0ED;}
	.st1{fill:#243774;}
</style>
<g>
	<g>
		<rect x="60.3" y="54.8" class="st0" width="78.5" height="91"/>
	</g>
	<g>
		<path class="st1" d="M125.6,176h-52c-9.2,0-16.7-7.5-16.7-16.7V40.4c0-9.2,7.5-16.7,16.7-16.7h52c9.2,0,16.7,7.5,16.7,16.7v118.9
			C142.3,168.5,134.8,176,125.6,176z M73.6,28.2c-6.7,0-12.1,5.4-12.1,12.1v118.9c0,6.7,5.4,12.1,12.1,12.1h52
			c6.7,0,12.1-5.4,12.1-12.1V40.4c0-6.7-5.4-12.1-12.1-12.1H73.6z"/>
	</g>
	<g>
		<rect x="88" y="157.5" class="st1" width="23.1" height="4.6"/>
	</g>
	<g>
		<circle class="st1" cx="99.6" cy="43.2" r="3.5"/>
	</g>
	<g>
		<rect x="59.2" y="51.3" class="st1" width="80.8" height="4.6"/>
	</g>
	<g>
		<rect x="60.3" y="143.7" class="st1" width="78.5" height="4.6"/>
	</g>
</g>
</svg>
