<?xml version="1.0" encoding="utf-8"?>
<!-- Generator: Adobe Illustrator 24.0.1, SVG Export Plug-In . SVG Version: 6.00 Build 0)  -->
<svg version="1.1" id="Capa_1" xmlns="http://www.w3.org/2000/svg" xmlns:xlink="http://www.w3.org/1999/xlink" x="0px" y="0px"
	 viewBox="0 0 200 200" style="enable-background:new 0 0 200 200;" xml:space="preserve">
<style type="text/css">
	.st0{fill:#243774;}
	.st1{fill:#2FAF94;}
	.st2{fill:#FFFFFF;}
</style>
<g>
	<g>
		<path class="st0" d="M99.3,182.8l-0.8-0.8c-45.8-16.8-62.7-69.1-63.4-71.3l-0.1-0.8V50.3l2.1-0.4c4.2-0.9,15.9-4,20.3-8
			c9.2-8.5,8.6-21.9,8.6-22l-0.1-2.7l30.2,0l0,0.2h38.3l-0.2,2.7c0,0.1-0.6,13.5,8.6,22l0,0c4.3,4,16.1,7.1,20.2,8l2.1,0.4
			l-0.1,60.4c-0.7,2.2-17.9,54.9-64.1,71.4L99.3,182.8z M40.1,109.5c1.6,4.6,18.6,52.3,59.9,67.6c41.1-15.4,58.2-62.8,59.8-67.4
			V54.6c-4.6-1.1-15.6-4.1-20.6-8.7l0,0c-8.4-7.7-10-18.4-10.3-23.4H89.9l0-0.2H71c-0.3,5-1.8,15.7-10.3,23.4
			c-5,4.6-16,7.6-20.6,8.7V109.5z"/>
	</g>
	<g>
		<path class="st1" d="M49.1,107.9c2.9,8,18.1,45.4,50.9,59.4c32.6-14.1,47.9-51.2,50.8-59.3V61.5c-6-1.9-13.2-4.8-17.7-9
			c-7.1-6.5-10.4-14.5-12-21H89.9l0-0.2H78.8c-1.5,6.5-4.9,14.5-12,21c-4.5,4.2-11.7,7.1-17.7,9V107.9z"/>
	</g>
	<circle class="st2" cx="100" cy="96.5" r="26.4"/>
	<g>
		<g>
			<path class="st0" d="M100,125.7c-16.3,0-29.6-13.3-29.6-29.6S83.7,66.5,100,66.5s29.6,13.3,29.6,29.6S116.3,125.7,100,125.7z
				 M100,71.6c-13.5,0-24.5,11-24.5,24.5s11,24.5,24.5,24.5s24.5-11,24.5-24.5S113.5,71.6,100,71.6z"/>
		</g>
		<g>
			<polygon class="st0" points="95.9,108.8 84.9,95.8 88.9,92.5 96.1,101.1 111.1,85.3 114.9,88.8 			"/>
		</g>
	</g>
</g>
</svg>
