<?xml version="1.0" encoding="utf-8"?>
<!-- Generator: Adobe Illustrator 24.0.1, SVG Export Plug-In . SVG Version: 6.00 Build 0)  -->
<svg version="1.1" id="Capa_1" xmlns="http://www.w3.org/2000/svg" xmlns:xlink="http://www.w3.org/1999/xlink" x="0px" y="0px"
	 viewBox="0 0 200 200" style="enable-background:new 0 0 200 200;" xml:space="preserve">
<style type="text/css">
	.st0{fill:#243774;}
	.st1{fill:#EB6B3F;}
	.st2{fill:#FFFFFF;}
</style>
<g>
	<g>
		<path class="st0" d="M164.1,151.5H35.9c-6.9,0-12.6-5.6-12.6-12.6V41.2c0-6.9,5.6-12.6,12.6-12.6h128.2c6.9,0,12.6,5.6,12.6,12.6
			v97.8C176.7,145.9,171,151.5,164.1,151.5z M35.9,33.3c-4.4,0-7.9,3.5-7.9,7.9v97.8c0,4.4,3.5,7.9,7.9,7.9h128.2
			c4.4,0,7.9-3.5,7.9-7.9V41.2c0-4.4-3.5-7.9-7.9-7.9H35.9z"/>
	</g>
	<g>
		<rect x="26.2" y="126.9" class="st0" width="147.5" height="4.7"/>
	</g>
	<polygon class="st0" points="123.4,166.7 123.4,157.4 118.7,157.4 118.7,166.7 81.3,166.7 81.3,157.4 76.6,157.4 76.6,166.7 
		67.2,166.7 67.2,171.4 132.8,171.4 132.8,166.7 	"/>
	<g>
		<g>
			<g>
				<path class="st1" d="M134.6,62.4l-0.4-0.6l-7,4.1c-2.1-3.4-4.9-6.4-8-8.7l4.7-6.6l-0.6-0.4c-3.8-2.7-8.1-4.7-12.6-6L110,44
					l-2.2,7.8c-3.9-1-8.1-1.2-12.2-0.7l-1.3-8l-0.7,0.1c-5.2,0.9-10.3,2.8-14.7,5.6l-0.6,0.4l4.3,6.9c-3.2,2.1-6,4.8-8.2,7.8
					l-6.7-4.7l-0.4,0.6c-2.7,3.8-4.6,8-5.8,12.5l-0.2,0.7l7.9,2.1c-1,4-1.2,8.2-0.5,12.5l-8,1.4l0.1,0.7c0.4,2.3,1,4.6,1.9,6.8
					c0.8,2.3,1.9,4.5,3.1,6.6l0.4,0.6l7-4.1c2.3,3.6,5.2,6.7,8.6,9.1l-4.6,6.7l0.6,0.4c3.7,2.5,7.7,4.3,12,5.5l0.7,0.2l2.1-7.9
					c4,1,8.2,1.2,12.4,0.6l1.4,8l0.7-0.1c2.3-0.4,4.6-1,6.9-1.9c2.4-0.9,4.7-2,6.8-3.3l0.6-0.4l-4.2-7c3.4-2.2,6.3-4.9,8.6-8.1
					l6.7,4.7l0.4-0.6c2.7-3.9,4.7-8.2,5.9-12.9l0.2-0.7l-7.9-2c1-4.1,1.1-8.5,0.4-12.8l8-1.6l-0.1-0.7c-0.4-2-1-4.1-1.7-6
					C136.8,66.7,135.8,64.5,134.6,62.4z"/>
			</g>
		</g>
		<circle class="st2" cx="100" cy="82.7" r="21.4"/>
	</g>
</g>
</svg>
