<?xml version="1.0" encoding="utf-8"?>
<!-- Generator: Adobe Illustrator 24.0.1, SVG Export Plug-In . SVG Version: 6.00 Build 0)  -->
<svg version="1.1" id="Capa_1" xmlns="http://www.w3.org/2000/svg" xmlns:xlink="http://www.w3.org/1999/xlink" x="0px" y="0px"
	 viewBox="0 0 200 200" style="enable-background:new 0 0 200 200;" xml:space="preserve">
<style type="text/css">
	.st0{fill:#243774;}
	.st1{fill:#EB6B3F;}
</style>
<g>
	<g>
		<path class="st0" d="M162.7,150.4H37.3c-6.8,0-12.3-5.5-12.3-12.3V42.4c0-6.8,5.5-12.3,12.3-12.3h125.4c6.8,0,12.3,5.5,12.3,12.3
			v95.6C175,144.9,169.5,150.4,162.7,150.4z M37.3,34.7c-4.3,0-7.7,3.5-7.7,7.7v95.6c0,4.3,3.5,7.7,7.7,7.7h125.4
			c4.3,0,7.7-3.5,7.7-7.7V42.4c0-4.3-3.5-7.7-7.7-7.7H37.3z"/>
	</g>
	<g>
		<path class="st1" d="M159.6,43.9H40.4v27.5h0.1c0,0.4-0.1,0.8-0.1,1.1c0,5.4,4.4,9.7,9.7,9.7s9.7-4.4,9.7-9.7
			c0-0.4-0.1-0.8-0.1-1.1h0.7c0,0.4-0.1,0.8-0.1,1.1c0,5.4,4.4,9.7,9.7,9.7s9.7-4.4,9.7-9.7c0-0.4-0.1-0.8-0.1-1.1h0.7
			c0,0.4-0.1,0.8-0.1,1.1c0,5.4,4.4,9.7,9.7,9.7s9.7-4.4,9.7-9.7c0-0.4-0.1-0.8-0.1-1.1h0.7c0,0.4-0.1,0.8-0.1,1.1
			c0,5.4,4.4,9.7,9.7,9.7c5.4,0,9.7-4.4,9.7-9.7c0-0.4-0.1-0.8-0.1-1.1h0.7c0,0.4-0.1,0.8-0.1,1.1c0,5.4,4.4,9.7,9.7,9.7
			c5.4,0,9.7-4.4,9.7-9.7c0-0.4-0.1-0.8-0.1-1.1h0.7c0,0.4-0.1,0.8-0.1,1.1c0,5.4,4.4,9.7,9.7,9.7c5.4,0,9.7-4.4,9.7-9.7
			c0-0.4-0.1-0.8-0.1-1.1h0.1V43.9z"/>
		<g>
			<g>
				<rect x="80.5" y="90.5" class="st0" width="41.2" height="4.6"/>
			</g>
			<g>
				<rect x="80.5" y="101.4" class="st0" width="77.9" height="4.6"/>
			</g>
			<g>
				<rect x="80.5" y="112.3" class="st0" width="77.9" height="4.6"/>
			</g>
		</g>
		<g>
			<path class="st0" d="M67.9,117.5H40.4V90h27.5V117.5z M45,112.9h18.3V94.6H45V112.9z"/>
		</g>
	</g>
	<g>
		<rect x="27.8" y="126.3" class="st0" width="144.3" height="4.6"/>
	</g>
	<polygon class="st0" points="122.9,165.3 122.9,156.1 118.3,156.1 118.3,165.3 81.7,165.3 81.7,156.1 77.1,156.1 77.1,165.3 
		67.9,165.3 67.9,169.9 132.1,169.9 132.1,165.3 	"/>
</g>
</svg>
