<?xml version="1.0" encoding="utf-8"?>
<!-- Generator: Adobe Illustrator 24.0.1, SVG Export Plug-In . SVG Version: 6.00 Build 0)  -->
<svg version="1.1" id="Capa_1" xmlns="http://www.w3.org/2000/svg" xmlns:xlink="http://www.w3.org/1999/xlink" x="0px" y="0px"
	 viewBox="0 0 200 200" style="enable-background:new 0 0 200 200;" xml:space="preserve">
<style type="text/css">
	.st0{fill:#243774;}
	.st1{fill:#D00D51;}
</style>
<g>
	<g>
		<g>
			<path class="st0" d="M134.9,171.6h-21.2c-1.5,0-2.7-1.2-2.7-2.7v-6.8H86.3v6.8c0,1.5-1.2,2.7-2.7,2.7H62.4
				c-1.5,0-2.7-1.2-2.7-2.7v-13.3C44,148,22.3,117.9,21.4,116.6c-0.3-0.5-0.5-1-0.5-1.5V90.3c0-1.5,1.2-2.7,2.7-2.7h11.2
				c3.5-3.7,13.6-13.9,21.5-15.7V51.4c0-1.3,1-2.4,2.3-2.6c5.4-0.8,17,0.8,23.8,11.8c6.9-0.6,32.9-2.1,52.1,4.3
				c15.8,5.3,28,20.5,31.1,38.5c2.9,17.2-2.9,33.3-15.5,43.2c-0.1,0.1-0.2,0.1-0.3,0.2c-6.7,3.9-11.1,13.6-12.1,15.8v6.2
				C137.6,170.4,136.4,171.6,134.9,171.6z M116.4,166.3h15.9v-4.1c0-0.3,0.1-0.7,0.2-1c0.2-0.5,5.4-13.4,14.4-18.8
				c11-8.7,16-22.9,13.4-38.1c-2.8-16.2-13.6-29.7-27.6-34.4c-20.8-7-51.3-4-51.6-3.9c-1.1,0.1-2.1-0.4-2.6-1.4
				c-4.9-9.2-13-10.6-16.9-10.7v20.4c0,0.7-0.3,1.4-0.8,1.9c-0.5,0.5-1.3,0.8-2,0.7c-4.6-0.4-14.9,8.6-20.8,15
				c-0.5,0.6-1.2,0.9-2,0.9h-9.7v21.2c3.4,4.7,24,32.2,37.2,37.3c1,0.4,1.7,1.4,1.7,2.5v12.4H81v-6.8c0-1.5,1.2-2.7,2.7-2.7h30.1
				c1.5,0,2.7,1.2,2.7,2.7V166.3z"/>
		</g>
		<g>
			<path class="st0" d="M61.6,102.7c-5.8,0-8.8-5.7-9.6-9.1c-0.4-1.4,0.5-2.9,1.9-3.2c1.4-0.4,2.9,0.5,3.2,1.9l0,0
				c0,0.1,1.4,5.1,4.5,5.1s4.5-5,4.5-5.1c0.4-1.4,1.8-2.3,3.2-1.9c1.4,0.4,2.3,1.8,1.9,3.2C70.4,96.9,67.4,102.7,61.6,102.7z"/>
		</g>
		<g>
			<path class="st0" d="M163.6,113.8c-1.2,0-2.3-0.9-2.6-2.1c-0.3-1.4,0.6-2.8,2.1-3.1c0.1,0,5-1.1,7.9-4.4c2.8-3.2,2.9-5.6,2.9-5.7
				c0.1-1.4,1.2-2.6,2.6-2.6c0,0,0,0,0.1,0c1.4,0,2.6,1.2,2.6,2.6c0,0.4-0.1,4.4-4.2,9.1c-4.1,4.8-10.6,6.1-10.8,6.2
				C163.9,113.8,163.8,113.8,163.6,113.8z"/>
		</g>
	</g>
	<g>
		<path class="st1" d="M107,100.2l-3.5,3.4c-1.6-1.6-3.2-2.5-4.7-2.5c-0.9,0-1.7,0.2-2.2,0.7c-0.6,0.5-0.9,1.1-0.9,1.7
			c0,0.5,0.3,1.1,0.8,1.6c0.5,0.5,1.5,1.1,3,1.7c2.7,1.1,4.5,2.1,5.5,2.8c1,0.8,1.8,1.7,2.3,2.8s0.8,2.3,0.8,3.7s-0.3,2.6-0.9,3.8
			c-0.6,1.2-1.3,2.1-2.2,2.8c-0.9,0.7-2.2,1.2-3.9,1.5v4.8h-3.4v-4.7c-1.6-0.2-2.9-0.6-4-1.2c-1.5-0.8-2.9-2-4.2-3.4l3.4-3.5
			c2.2,2.4,4.4,3.5,6.4,3.5c1.1,0,2-0.4,2.7-1.1c0.8-0.7,1.1-1.6,1.1-2.6c0-0.8-0.2-1.6-0.7-2.2c-0.5-0.6-1.5-1.3-2.9-1.9
			c-2.9-1.3-4.8-2.4-5.8-3.2c-1-0.8-1.8-1.7-2.3-2.6c-0.5-1-0.8-2-0.8-3.1c0-1.8,0.7-3.4,2-4.7c1.3-1.3,3-2,5-2.1v-1.8h3.4v2
			c1.2,0.3,2.2,0.7,3,1.1C104.9,98.3,105.9,99.1,107,100.2z"/>
	</g>
	<g>
		<circle class="st1" cx="101" cy="39.8" r="11.4"/>
	</g>
</g>
</svg>
