<?xml version="1.0" encoding="utf-8"?>
<!-- Generator: Adobe Illustrator 23.0.0, SVG Export Plug-In . SVG Version: 6.00 Build 0)  -->
<svg version="1.1" id="Capa_1" xmlns="http://www.w3.org/2000/svg" xmlns:xlink="http://www.w3.org/1999/xlink" x="0px" y="0px"
	 viewBox="0 0 500 354" style="enable-background:new 0 0 500 354;" xml:space="preserve">
<g>
	<path d="M248.87,282.88c-12.85,0-24.79-5.16-33.59-14.52L89.21,134.33c-4.92-5.23-6.2-12.56-3.35-19.15
		c2.85-6.59,9.07-10.68,16.25-10.68h285.6c7.05,0,13.23,3.99,16.13,10.41s1.81,13.7-2.85,18.99l-117.5,133.34
		C274.73,277.18,262.11,282.88,248.87,282.88z"/>
	<path d="M387.7,105c6.85,0,12.86,3.88,15.68,10.12c2.82,6.24,1.76,13.31-2.77,18.45l-117.5,133.34
		c-8.66,9.83-21.14,15.46-34.24,15.46c-12.71,0-24.52-5.1-33.23-14.37L89.58,133.98c-4.78-5.08-6.03-12.21-3.26-18.61
		c2.77-6.4,8.82-10.38,15.79-10.38H387.7 M387.7,104h-285.6c-15.95,0-24.18,19.05-13.26,30.67l126.06,134.02
		c9.22,9.81,21.6,14.68,33.96,14.68c12.87,0,25.72-5.29,34.99-15.8l117.5-133.34C411.72,122.48,403.37,104,387.7,104L387.7,104z"/>
</g>
</svg>
