<?xml version="1.0" encoding="utf-8"?>
<!-- Generator: Adobe Illustrator 24.0.1, SVG Export Plug-In . SVG Version: 6.00 Build 0)  -->
<svg version="1.1" id="Capa_1" xmlns="http://www.w3.org/2000/svg" xmlns:xlink="http://www.w3.org/1999/xlink" x="0px" y="0px"
	 viewBox="0 0 200 200" style="enable-background:new 0 0 200 200;" xml:space="preserve">
<style type="text/css">
	.st0{fill:#EB6B3F;}
	.st1{fill:#243774;}
	.st2{fill:#A0D0ED;}
	.st3{fill:#FFFFFF;}
</style>
<g>
	<g>
		<g>
			<rect x="29" y="59" class="st0" width="142" height="20.8"/>
		</g>
	</g>
	<g>
		<g>
			<path class="st1" d="M163.6,152.1H36.4c-5.2,0-9.4-4.1-9.4-9.1V65c0-5,4.2-9.1,9.4-9.1h127.2c5.2,0,9.4,4.1,9.4,9.1v78
				C173,148,168.8,152.1,163.6,152.1z M36.4,62.3c-1.5,0-2.8,1.2-2.8,2.7v78c0,1.5,1.2,2.7,2.8,2.7h127.2c1.5,0,2.8-1.2,2.8-2.7V65
				c0-1.5-1.2-2.7-2.8-2.7H36.4z"/>
		</g>
	</g>
	<g>
		<circle class="st1" cx="100" cy="121.9" r="36.3"/>
	</g>
	<g>
		<g>
			<circle class="st2" cx="100" cy="121.9" r="27.2"/>
		</g>
		<g>
			<path class="st3" d="M100,98c13.2,0,23.9,10.7,23.9,23.9c0,13.2-10.7,23.9-23.9,23.9s-23.9-10.7-23.9-23.9
				C76.1,108.7,86.8,98,100,98 M100,91.4c-16.8,0-30.4,13.7-30.4,30.4s13.7,30.4,30.4,30.4s30.4-13.7,30.4-30.4S116.8,91.4,100,91.4
				L100,91.4z"/>
		</g>
	</g>
	<g>
		<g>
			<rect x="143.3" y="66.3" class="st1" width="18.5" height="5.7"/>
		</g>
	</g>
	<g>
		<g>
			<rect x="33.4" y="44.8" class="st1" width="18.5" height="5.7"/>
		</g>
	</g>
	<g>
		<g>
			<rect x="155.7" y="85.6" class="st1" width="5.7" height="54.1"/>
		</g>
	</g>
	<g>
		<g>
			<rect x="39.1" y="85.6" class="st1" width="5.7" height="54.1"/>
		</g>
	</g>
	<g>
		<rect x="38.8" y="66.3" class="st3" width="6.5" height="6.5"/>
	</g>
	<g>
		<rect x="148.8" y="44.8" class="st1" width="6.5" height="6.5"/>
	</g>
	<g>
		<rect x="161.2" y="44.8" class="st1" width="6.5" height="6.5"/>
	</g>
	<g>
		<path class="st3" d="M86.3,121.3c0.3-7.2,6.1-13,13.4-13.2v-5.9c-10.5,0.2-19,8.6-19.3,19.1H86.3z"/>
	</g>
	<g>
		<polygon class="st1" points="69,62.2 64.9,58 81.7,41.8 118.3,41.8 135.1,58 131,62.2 115.9,47.7 84.1,47.7 		"/>
	</g>
</g>
</svg>
