<?xml version="1.0" encoding="utf-8"?>
<!-- Generator: Adobe Illustrator 24.0.1, SVG Export Plug-In . SVG Version: 6.00 Build 0)  -->
<svg version="1.1" id="Capa_1" xmlns="http://www.w3.org/2000/svg" xmlns:xlink="http://www.w3.org/1999/xlink" x="0px" y="0px"
	 viewBox="0 0 200 200" style="enable-background:new 0 0 200 200;" xml:space="preserve">
<style type="text/css">
	.st0{fill:#243774;}
	.st1{fill:#EB6B3F;}
	.st2{fill:#A0D0ED;}
	.st3{fill:#FFFFFF;}
	.st4{fill:#2FAF94;}
</style>
<g>
	<g>
		<g>
			<rect x="167.1" y="167.1" class="st0" width="4.8" height="4.8"/>
		</g>
		<g>
			<path class="st0" d="M162.2,171.9h-5v-4.8h5V171.9z M152.2,171.9h-5v-4.8h5V171.9z M142.3,171.9h-5v-4.8h5V171.9z M132.3,171.9
				h-5v-4.8h5V171.9z M122.4,171.9h-5v-4.8h5V171.9z M112.4,171.9h-5v-4.8h5V171.9z M102.5,171.9h-5v-4.8h5V171.9z M92.5,171.9h-5
				v-4.8h5V171.9z M82.6,171.9h-5v-4.8h5V171.9z M72.7,171.9h-5v-4.8h5V171.9z M62.7,171.9h-5v-4.8h5V171.9z M52.8,171.9h-5v-4.8h5
				V171.9z M42.8,171.9h-5v-4.8h5V171.9z"/>
		</g>
		<g>
			<rect x="28.1" y="167.1" class="st0" width="4.8" height="4.8"/>
		</g>
		<g>
			<path class="st0" d="M32.9,162.2h-4.8v-4.9h4.8V162.2z M32.9,152.4h-4.8v-4.9h4.8V152.4z M32.9,142.5h-4.8v-4.9h4.8V142.5z
				 M32.9,132.7h-4.8v-4.9h4.8V132.7z M32.9,122.8h-4.8v-4.9h4.8V122.8z M32.9,113h-4.8v-4.9h4.8V113z M32.9,103.1h-4.8v-4.9h4.8
				V103.1z M32.9,93.3h-4.8v-4.9h4.8V93.3z M32.9,83.5h-4.8v-4.9h4.8V83.5z M32.9,73.6h-4.8v-4.9h4.8V73.6z M32.9,63.8h-4.8v-4.9
				h4.8V63.8z M32.9,53.9h-4.8V49h4.8V53.9z M32.9,44.1h-4.8v-4.9h4.8V44.1z"/>
		</g>
		<g>
			<rect x="28.1" y="29.4" class="st0" width="4.8" height="4.8"/>
		</g>
		<g>
			<path class="st0" d="M162.2,34.3h-5v-4.8h5V34.3z M152.2,34.3h-5v-4.8h5V34.3z M142.3,34.3h-5v-4.8h5V34.3z M132.3,34.3h-5v-4.8
				h5V34.3z M122.4,34.3h-5v-4.8h5V34.3z M112.4,34.3h-5v-4.8h5V34.3z M102.5,34.3h-5v-4.8h5V34.3z M92.5,34.3h-5v-4.8h5V34.3z
				 M82.6,34.3h-5v-4.8h5V34.3z M72.7,34.3h-5v-4.8h5V34.3z M62.7,34.3h-5v-4.8h5V34.3z M52.8,34.3h-5v-4.8h5V34.3z M42.8,34.3h-5
				v-4.8h5V34.3z"/>
		</g>
		<g>
			<rect x="167.1" y="29.4" class="st0" width="4.8" height="4.8"/>
		</g>
		<g>
			<path class="st0" d="M171.9,162.2h-4.8v-4.9h4.8V162.2z M171.9,152.4h-4.8v-4.9h4.8V152.4z M171.9,142.5h-4.8v-4.9h4.8V142.5z
				 M171.9,132.7h-4.8v-4.9h4.8V132.7z M171.9,122.8h-4.8v-4.9h4.8V122.8z M171.9,113h-4.8v-4.9h4.8V113z M171.9,103.1h-4.8v-4.9
				h4.8V103.1z M171.9,93.3h-4.8v-4.9h4.8V93.3z M171.9,83.5h-4.8v-4.9h4.8V83.5z M171.9,73.6h-4.8v-4.9h4.8V73.6z M171.9,63.8h-4.8
				v-4.9h4.8V63.8z M171.9,53.9h-4.8V49h4.8V53.9z M171.9,44.1h-4.8v-4.9h4.8V44.1z"/>
		</g>
	</g>
	<g>
		<path class="st1" d="M118.6,145.4H82.8v-16.5h9.6V66.3H65.6v10.3H49.1V49.7h102.6v26.8h-16.5V66.3h-26.2v62.6h9.6V145.4z
			 M88.3,139.9h24.8v-5.5h-9.6V60.8h37.2v10.3h5.5V55.3H54.6v15.8h5.5V60.8h37.9v73.7h-9.6V139.9z"/>
	</g>
	<g>
		<polygon class="st2" points="128.9,157.1 82.1,157.1 82.1,151.6 123.4,151.6 123.4,124.1 112.4,124.1 112.4,71.1 129.6,71.1 
			129.6,82.1 156.5,82.1 156.5,51.1 162,51.1 162,87.6 124.1,87.6 124.1,76.6 117.9,76.6 117.9,118.6 128.9,118.6 		"/>
	</g>
	<g>
		<polygon class="st2" points="76.6,87.6 49.1,87.6 49.1,82.1 71.1,82.1 71.1,70.4 86.9,70.4 86.9,75.9 76.6,75.9 		"/>
	</g>
	<g>
		<rect x="25.6" y="25.6" class="st3" width="11.7" height="11.7"/>
		<path class="st4" d="M40.1,40.1H22.9V22.9h17.2V40.1z M28.4,34.6h6.2v-6.2h-6.2V34.6z"/>
	</g>
	<g>
		<rect x="162.6" y="25.6" class="st3" width="11.7" height="11.7"/>
		<path class="st4" d="M177.1,40.1h-17.2V22.9h17.2V40.1z M165.4,34.6h6.2v-6.2h-6.2V34.6z"/>
	</g>
	<g>
		<rect x="25.6" y="162.6" class="st3" width="11.7" height="11.7"/>
		<path class="st4" d="M40.1,177.1H22.9v-17.2h17.2V177.1z M28.4,171.6h6.2v-6.2h-6.2V171.6z"/>
	</g>
	<g>
		<rect x="162.6" y="162.6" class="st3" width="11.7" height="11.7"/>
		<path class="st4" d="M177.1,177.1h-17.2v-17.2h17.2V177.1z M165.4,171.6h6.2v-6.2h-6.2V171.6z"/>
	</g>
</g>
</svg>
