<?xml version="1.0" encoding="utf-8"?>
<!-- Generator: Adobe Illustrator 24.0.1, SVG Export Plug-In . SVG Version: 6.00 Build 0)  -->
<svg version="1.1" id="Capa_1" xmlns="http://www.w3.org/2000/svg" xmlns:xlink="http://www.w3.org/1999/xlink" x="0px" y="0px"
	 viewBox="0 0 200 200" style="enable-background:new 0 0 200 200;" xml:space="preserve">
<style type="text/css">
	.st0{fill:#A0D0ED;}
	.st1{fill:#243774;}
	.st2{fill:#FFFFFF;}
	.st3{fill:#EB6B3F;}
	.st4{fill:#2FAF94;}
</style>
<g>
	<g>
		<rect x="30" y="49.7" class="st0" width="87.7" height="101.6"/>
	</g>
	<g>
		<path class="st1" d="M102.9,185.1h-58c-10.3,0-18.7-8.4-18.7-18.7V33.6c0-10.3,8.4-18.7,18.7-18.7h58c10.3,0,18.7,8.4,18.7,18.7
			v132.8C121.6,176.7,113.2,185.1,102.9,185.1z M44.9,20.1c-7.5,0-13.5,6.1-13.5,13.5v132.8c0,7.5,6.1,13.5,13.5,13.5h58
			c7.5,0,13.5-6.1,13.5-13.5V33.6c0-7.5-6.1-13.5-13.5-13.5H44.9z"/>
	</g>
	<g>
		<rect x="61" y="164.5" class="st1" width="25.8" height="5.2"/>
	</g>
	<g>
		<circle class="st1" cx="73.9" cy="36.8" r="3.9"/>
	</g>
	<g>
		<rect x="28.8" y="45.8" class="st1" width="90.3" height="5.2"/>
	</g>
	<g>
		<rect x="30" y="149" class="st1" width="87.7" height="5.2"/>
	</g>
	<rect x="63.6" y="63.9" class="st2" width="106.9" height="71.3"/>
	<g>
		<g>
			<rect x="77.8" y="121.3" class="st1" width="15.5" height="5.2"/>
		</g>
		<g>
			<rect x="98.8" y="121.3" class="st1" width="15.5" height="5.2"/>
		</g>
		<g>
			<rect x="119.9" y="121.3" class="st1" width="15.5" height="5.2"/>
		</g>
		<g>
			<rect x="140.9" y="121.3" class="st1" width="15.5" height="5.2"/>
		</g>
	</g>
	<g>
		<rect x="64.2" y="74.2" class="st3" width="105.7" height="15.5"/>
	</g>
	<g>
		<g>
			<rect x="75.8" y="98.7" class="st4" width="38.7" height="12.9"/>
		</g>
		<g>
			<rect x="140.3" y="98.7" class="st4" width="18.1" height="12.9"/>
		</g>
	</g>
	<g>
		<path class="st1" d="M166.5,138.7H67.7c-4,0-7.3-3.3-7.3-7.3V68.6c0-4,3.3-7.3,7.3-7.3h98.8c4,0,7.3,3.3,7.3,7.3v62.7
			C173.8,135.4,170.5,138.7,166.5,138.7z M67.7,66.5c-1.2,0-2.1,1-2.1,2.1v62.7c0,1.2,1,2.1,2.1,2.1h98.8c1.2,0,2.1-1,2.1-2.1V68.6
			c0-1.2-1-2.1-2.1-2.1H67.7z"/>
	</g>
</g>
</svg>
