<?xml version="1.0" encoding="utf-8"?>
<!-- Generator: Adobe Illustrator 24.0.1, SVG Export Plug-In . SVG Version: 6.00 Build 0)  -->
<svg version="1.1" id="Capa_1" xmlns="http://www.w3.org/2000/svg" xmlns:xlink="http://www.w3.org/1999/xlink" x="0px" y="0px"
	 viewBox="0 0 200 200" style="enable-background:new 0 0 200 200;" xml:space="preserve">
<style type="text/css">
	.st0{fill:#243774;}
	.st1{fill:#EB6B3F;}
	.st2{fill:#FFFFFF;}
</style>
<g>
	<path class="st0" d="M161.1,157.3h-126c-0.7,0-1.4-0.3-1.9-0.8c-0.5-0.5-0.8-1.2-0.7-2c1.2-27.4,20.3-51,46.6-58.8
		c-10.9-6.6-17.9-18.5-17.9-31.6c0-20.3,16.6-36.9,36.9-36.9S135,43.7,135,64.1c0,13.2-6.9,25-17.9,31.6
		c26.3,7.8,45.4,31.5,46.6,58.8c0,0.7-0.2,1.4-0.7,2C162.5,157,161.8,157.3,161.1,157.3z M37.9,152h120.2
		c-2.5-26.3-23-48.2-49.7-52.8c-1.2-0.2-2.1-1.2-2.2-2.4c-0.1-1.2,0.7-2.4,1.8-2.8c12.9-4.3,21.6-16.3,21.6-29.9
		c0-17.4-14.1-31.5-31.5-31.5S66.5,46.7,66.5,64.1c0,13.6,8.7,25.6,21.6,29.9c1.2,0.4,1.9,1.5,1.8,2.8c-0.1,1.2-1,2.2-2.2,2.4
		C60.9,103.7,40.4,125.7,37.9,152z"/>
	<g>
		<g>
			<g>
				<path class="st1" d="M163,116.2l-0.4-0.6l-6.6,3.9c-2-3.3-4.6-6-7.6-8.2l4.5-6.3l-0.6-0.4c-3.6-2.6-7.6-4.5-11.9-5.7l-0.7-0.2
					l-2,7.4c-3.7-0.9-7.6-1.2-11.6-0.6l-1.2-7.6l-0.7,0.1c-4.9,0.8-9.7,2.6-13.9,5.3l-0.6,0.4l4.1,6.5c-3,2-5.7,4.5-7.7,7.4
					l-6.3-4.4l-0.4,0.6c-2.5,3.6-4.4,7.6-5.5,11.8l-0.2,0.7l7.4,2c-0.9,3.8-1.1,7.8-0.5,11.8l-7.6,1.3l0.1,0.7
					c0.4,2.2,1,4.3,1.8,6.4c0.8,2.2,1.8,4.3,3,6.2l0.4,0.6l6.6-3.9c2.1,3.4,4.9,6.3,8.1,8.6l-4.3,6.4l0.6,0.4
					c3.5,2.3,7.3,4.1,11.3,5.2l0.7,0.2l2-7.4c3.8,0.9,7.7,1.1,11.7,0.5l1.3,7.6l0.7-0.1c2.2-0.4,4.4-1,6.5-1.8
					c2.2-0.8,4.4-1.9,6.4-3.1l0.6-0.4l-4-6.6c3.2-2,6-4.7,8.2-7.7l6.3,4.4l0.4-0.6c2.6-3.7,4.5-7.8,5.6-12.1l0.2-0.7l-7.4-1.9
					c0.9-3.9,1.1-8,0.4-12.1l7.5-1.5l-0.1-0.7c-0.4-1.9-0.9-3.8-1.6-5.7C165.1,120.2,164.1,118.2,163,116.2z"/>
			</g>
		</g>
		<circle class="st2" cx="130.3" cy="135.4" r="20.2"/>
	</g>
</g>
</svg>
