<?xml version="1.0" encoding="utf-8"?>
<!-- Generator: Adobe Illustrator 24.0.1, SVG Export Plug-In . SVG Version: 6.00 Build 0)  -->
<svg version="1.1" id="Capa_1" xmlns="http://www.w3.org/2000/svg" xmlns:xlink="http://www.w3.org/1999/xlink" x="0px" y="0px"
	 viewBox="0 0 200 200" style="enable-background:new 0 0 200 200;" xml:space="preserve">
<style type="text/css">
	.st0{fill:#EB6B3F;}
	.st1{fill:#243774;}
	.st2{fill:#297AB2;}
	.st3{fill:#FFFFFF;}
</style>
<g>
	<g>
		<polygon class="st0" points="38.8,89 38.8,98.5 38.8,100.9 38.8,110.4 91.1,138.5 91.1,100.9 91.1,98.5 91.1,60.9 		"/>
	</g>
	<g>
		<path class="st1" d="M42,118.7H23v-38h19V118.7z M27.8,114h9.5V85.5h-9.5V114z"/>
	</g>
	<g>
		<path class="st1" d="M104.9,148.4H88.3v-95h16.6V148.4z M93.1,143.6h7.1V58.1h-7.1V143.6z"/>
	</g>
	<g>
		<polygon class="st1" points="111.5,83.5 107.9,80.3 130,55.8 145.3,55.8 145.3,60.5 132.1,60.5 		"/>
	</g>
	<g>
		<polygon class="st1" points="146.5,143.6 131.2,143.6 109.1,119.1 112.7,115.9 133.3,138.9 146.5,138.9 		"/>
	</g>
	<g>
		<rect x="109.7" y="98.5" class="st1" width="33.3" height="4.8"/>
	</g>
	<g>
		<rect x="148.5" y="127.3" class="st2" width="28.5" height="28.5"/>
	</g>
	<g>
		<g>
			<g>
				<rect x="154.4" y="133.8" class="st3" width="16.6" height="4.8"/>
			</g>
		</g>
		<g>
			<g>
				<rect x="154.4" y="144.5" class="st3" width="16.6" height="4.8"/>
			</g>
		</g>
	</g>
	<g>
		<rect x="148.5" y="84.6" class="st2" width="28.5" height="28.5"/>
	</g>
	<g>
		<g>
			<g>
				<rect x="154.4" y="91.1" class="st3" width="16.6" height="4.8"/>
			</g>
		</g>
		<g>
			<g>
				<rect x="154.4" y="101.8" class="st3" width="16.6" height="4.8"/>
			</g>
		</g>
	</g>
	<g>
		<rect x="148.5" y="44.2" class="st2" width="28.5" height="28.5"/>
	</g>
	<g>
		<g>
			<g>
				<rect x="154.4" y="50.7" class="st3" width="16.6" height="4.8"/>
			</g>
		</g>
		<g>
			<g>
				<rect x="154.4" y="61.4" class="st3" width="16.6" height="4.8"/>
			</g>
		</g>
	</g>
</g>
</svg>
