<?xml version="1.0" encoding="utf-8"?>
<!-- Generator: Adobe Illustrator 24.0.1, SVG Export Plug-In . SVG Version: 6.00 Build 0)  -->
<svg version="1.1" id="Capa_1" xmlns="http://www.w3.org/2000/svg" xmlns:xlink="http://www.w3.org/1999/xlink" x="0px" y="0px"
	 viewBox="0 0 200 200" style="enable-background:new 0 0 200 200;" xml:space="preserve">
<style type="text/css">
	.st0{fill:#243774;}
	.st1{fill:#2FAF94;}
	.st2{fill:#FFFFFF;}
</style>
<g>
	<g>
		<path class="st0" d="M99.4,170.8l-0.7-0.7c-39.1-14.3-53.6-59-54.2-60.9l-0.1-0.7V57.5l1.8-0.4c3.6-0.7,13.6-3.4,17.3-6.8
			c7.9-7.2,7.4-18.7,7.4-18.8l-0.1-2.3l25.8,0l0,0.1h32.8l-0.1,2.3c0,0.1-0.5,11.6,7.4,18.8l0,0c3.7,3.4,13.7,6.1,17.3,6.8l1.8,0.4
			l-0.1,51.6c-0.6,1.9-15.3,46.9-54.7,61L99.4,170.8z M48.8,108.1c1.3,4,15.9,44.7,51.2,57.8c35.1-13.1,49.8-53.7,51.1-57.6v-47
			c-3.9-0.9-13.3-3.5-17.6-7.5l0,0c-7.2-6.6-8.5-15.7-8.8-20H91.4l0-0.1H75.2c-0.2,4.2-1.6,13.4-8.8,20c-4.3,3.9-13.7,6.5-17.6,7.5
			V108.1z"/>
	</g>
	<g>
		<path class="st1" d="M56.5,106.8c2.5,6.8,15.5,38.8,43.5,50.8c27.9-12,40.9-43.8,43.4-50.6V67.1c-5.1-1.6-11.2-4.1-15.1-7.7
			c-6.1-5.6-8.9-12.4-10.2-17.9H91.4l0-0.1h-9.5c-1.3,5.6-4.1,12.4-10.2,17.9c-3.9,3.6-10,6.1-15.1,7.7V106.8z"/>
	</g>
	<circle class="st2" cx="100" cy="97" r="22.6"/>
	<g>
		<g>
			<path class="st0" d="M100,122c-14,0-25.3-11.4-25.3-25.3S86,71.3,100,71.3s25.3,11.4,25.3,25.3S114,122,100,122z M100,75.7
				c-11.5,0-20.9,9.4-20.9,20.9s9.4,20.9,20.9,20.9s20.9-9.4,20.9-20.9S111.5,75.7,100,75.7z"/>
		</g>
		<g>
			<polygon class="st0" points="96.5,107.5 87.1,96.4 90.5,93.6 96.7,100.9 109.5,87.4 112.7,90.5 			"/>
		</g>
	</g>
</g>
</svg>
