<?xml version="1.0" encoding="utf-8"?>
<!-- Generator: Adobe Illustrator 24.0.1, SVG Export Plug-In . SVG Version: 6.00 Build 0)  -->
<svg version="1.1" id="Capa_1" xmlns="http://www.w3.org/2000/svg" xmlns:xlink="http://www.w3.org/1999/xlink" x="0px" y="0px"
	 viewBox="0 0 200 200" style="enable-background:new 0 0 200 200;" xml:space="preserve">
<style type="text/css">
	.st0{fill:#243774;}
	.st1{fill:#EB6B3F;}
	.st2{fill:#A0D0ED;}
</style>
<g>
	<g>
		<g>
			<rect x="29.5" y="144.8" class="st0" width="141" height="4.5"/>
		</g>
	</g>
	<g>
		<polygon class="st0" points="122.4,182.8 122.4,173.9 117.9,173.9 117.9,182.8 82.1,182.8 82.1,173.9 77.6,173.9 77.6,182.8 
			68.7,182.8 68.7,187.3 131.3,187.3 131.3,182.8 		"/>
	</g>
	<g>
		<rect x="93.8" y="153.1" class="st0" width="15.1" height="5.6"/>
	</g>
	<g>
		<path class="st1" d="M131.9,133.3h-28.6V12.7h28.6V133.3z M108.9,127.7h17.5V18.2h-17.5V127.7z"/>
	</g>
	<g>
		<path class="st0" d="M98.6,134.8H69.2V42h29.4V134.8z M74.8,129.3H93V47.6H74.8V129.3z"/>
	</g>
	<g>
		<path class="st0" d="M95.8,45.6H72l-2.6-3.9l11.5-27.4l5.1-0.1l12.3,27.4L95.8,45.6z M76.2,40h15.3l-7.9-17.6L76.2,40z"/>
	</g>
	<g>
		<rect x="80.3" y="42.8" class="st0" width="5.6" height="89.6"/>
	</g>
	<g>
		<rect x="103.7" y="119.8" class="st1" width="11.1" height="5.6"/>
	</g>
	<g>
		<rect x="103.7" y="108.7" class="st1" width="11.1" height="5.6"/>
	</g>
	<g>
		<rect x="103.7" y="97.6" class="st1" width="11.1" height="5.6"/>
	</g>
	<g>
		<rect x="103.7" y="86.5" class="st1" width="11.1" height="5.6"/>
	</g>
	<g>
		<rect x="103.7" y="75.3" class="st1" width="11.1" height="5.6"/>
	</g>
	<g>
		<rect x="103.7" y="64.2" class="st1" width="11.1" height="5.6"/>
	</g>
	<g>
		<rect x="103.7" y="53.1" class="st1" width="11.1" height="5.6"/>
	</g>
	<g>
		<rect x="103.7" y="42" class="st1" width="11.1" height="5.6"/>
	</g>
	<g>
		<rect x="114.8" y="28.1" class="st1" width="5.6" height="5.6"/>
	</g>
	<polygon class="st2" points="137.4,53.5 137.4,59.1 159.3,59.1 159.3,129.7 42.7,129.7 42.7,59.1 64.5,59.1 64.5,53.5 37.1,53.5 
		37.1,135.2 164.8,135.2 164.8,53.5 	"/>
	<path class="st0" d="M161.3,42h-23.8v4.8h23.8c4.2,0,7.6,3.6,7.6,8.1v100.4c0,4.5-3.4,8.1-7.6,8.1H38.7c-4.2,0-7.6-3.6-7.6-8.1V55
		c0-4.5,3.4-8.1,7.6-8.1h25.8V42H38.7c-6.6,0-12,5.8-12,12.9v100.4c0,7.1,5.4,12.9,12,12.9h122.6c6.6,0,12-5.8,12-12.9V55
		C173.3,47.8,167.9,42,161.3,42z"/>
</g>
</svg>
