<?xml version="1.0" encoding="utf-8"?>
<!-- Generator: Adobe Illustrator 24.0.1, SVG Export Plug-In . SVG Version: 6.00 Build 0)  -->
<svg version="1.1" id="Capa_1" xmlns="http://www.w3.org/2000/svg" xmlns:xlink="http://www.w3.org/1999/xlink" x="0px" y="0px"
	 viewBox="0 0 200 200" style="enable-background:new 0 0 200 200;" xml:space="preserve">
<style type="text/css">
	.st0{fill:#243774;}
	.st1{fill:#EB6B3F;}
</style>
<g>
	<g>
		<path class="st0" d="M164.3,151.7H35.7c-7,0-12.6-5.7-12.6-12.6V41c0-7,5.7-12.6,12.6-12.6h128.6c7,0,12.6,5.7,12.6,12.6V139
			C176.9,146,171.3,151.7,164.3,151.7z M35.7,33.1c-4.4,0-7.9,3.6-7.9,7.9V139c0,4.4,3.6,7.9,7.9,7.9h128.6c4.4,0,7.9-3.6,7.9-7.9
			V41c0-4.4-3.6-7.9-7.9-7.9H35.7z"/>
	</g>
	<g>
		<rect x="26" y="127" class="st0" width="148" height="4.7"/>
	</g>
	<polygon class="st0" points="123.5,166.9 123.5,157.5 118.8,157.5 118.8,166.9 81.2,166.9 81.2,157.5 76.5,157.5 76.5,166.9 
		67.1,166.9 67.1,171.6 132.9,171.6 132.9,166.9 	"/>
	<polyline class="st1" points="81.7,54 124.1,82 81.7,109.9 	"/>
</g>
</svg>
