<?xml version="1.0" encoding="utf-8"?>
<!-- Generator: Adobe Illustrator 22.0.1, SVG Export Plug-In . SVG Version: 6.00 Build 0)  -->
<svg version="1.1" id="Capa_1" xmlns="http://www.w3.org/2000/svg" xmlns:xlink="http://www.w3.org/1999/xlink" x="0px" y="0px"
	 viewBox="0 0 200 200" style="enable-background:new 0 0 200 200;" xml:space="preserve">
<style type="text/css">
	.st0{fill:#0F2F80;}
	.st1{fill:#D00A50;}
</style>
<g>
	<g>
		<g>
			<path class="st0" d="M134.4,172.4h-21.5c-1.5,0-2.7-1.2-2.7-2.7v-6.9H85.2v6.9c0,1.5-1.2,2.7-2.7,2.7H61c-1.5,0-2.7-1.2-2.7-2.7
				v-13.5c-16-7.7-38-38.3-38.9-39.6c-0.3-0.5-0.5-1-0.5-1.6V90c0-1.5,1.2-2.7,2.7-2.7h11.4c3.5-3.8,13.8-14,21.8-15.9V50.6
				c0-1.3,1-2.5,2.3-2.7c5.5-0.8,17.2,0.8,24.1,12c7-0.6,33.3-2.1,52.8,4.4c16,5.4,28.4,20.7,31.6,39.1c3,17.4-2.9,33.8-15.8,43.8
				c-0.1,0.1-0.2,0.1-0.3,0.2c-6.8,3.9-11.3,13.8-12.2,16v6.3C137.1,171.2,135.9,172.4,134.4,172.4z M115.6,167.1h16.1v-4.2
				c0-0.3,0.1-0.7,0.2-1c0.2-0.6,5.5-13.6,14.6-19c11.2-8.8,16.3-23.2,13.6-38.6c-2.8-16.4-13.8-30.1-28-34.9c-21-7.1-51.9-4-52.3-4
				c-1.1,0.1-2.1-0.4-2.6-1.4c-4.9-9.3-13.2-10.7-17.2-10.8v20.7c0,0.7-0.3,1.5-0.9,2c-0.5,0.5-1.3,0.8-2,0.7
				c-4.7-0.4-15.1,8.7-21.1,15.3c-0.5,0.6-1.2,0.9-2,0.9h-9.9v21.5c3.5,4.8,24.3,32.6,37.7,37.8c1,0.4,1.7,1.4,1.7,2.5v12.5h16.1
				v-6.9c0-1.5,1.2-2.7,2.7-2.7h30.5c1.5,0,2.7,1.2,2.7,2.7V167.1z"/>
		</g>
		<g>
			<path class="st0" d="M60.1,102.6c-5.9,0-8.9-5.8-9.8-9.2c-0.4-1.4,0.5-2.9,2-3.3c1.4-0.4,2.9,0.5,3.3,1.9l0,0
				c0,0.1,1.4,5.1,4.6,5.1c3.1,0,4.5-5.1,4.6-5.1c0.4-1.4,1.8-2.3,3.3-1.9c1.4,0.4,2.3,1.8,1.9,3.3C69,96.8,66,102.6,60.1,102.6z"/>
		</g>
		<g>
			<path class="st0" d="M163.5,113.9c-1.3,0-2.4-0.9-2.6-2.2c-0.3-1.5,0.6-2.9,2.1-3.2c0.1,0,5.1-1.1,8-4.5c2.8-3.3,2.9-5.7,2.9-5.8
				c0.1-1.4,1.3-2.6,2.7-2.6c0,0,0,0,0.1,0c1.5,0,2.6,1.2,2.6,2.7c0,0.4-0.1,4.4-4.2,9.2c-4.1,4.8-10.7,6.2-11,6.3
				C163.8,113.9,163.7,113.9,163.5,113.9z"/>
		</g>
	</g>
	<g>
		<path class="st1" d="M106.1,100.1l-3.5,3.5c-1.6-1.7-3.2-2.5-4.8-2.5c-0.9,0-1.7,0.2-2.3,0.7c-0.6,0.5-0.9,1.1-0.9,1.7
			c0,0.6,0.3,1.1,0.8,1.6c0.5,0.6,1.5,1.1,3,1.8c2.7,1.1,4.6,2.1,5.6,2.9c1,0.8,1.8,1.8,2.3,2.9s0.8,2.4,0.8,3.7s-0.3,2.7-0.9,3.8
			c-0.6,1.2-1.3,2.1-2.2,2.8c-0.9,0.7-2.2,1.2-3.9,1.6v4.9h-3.5v-4.8c-1.6-0.2-3-0.6-4.1-1.2c-1.5-0.9-3-2-4.3-3.4l3.5-3.6
			c2.2,2.4,4.4,3.6,6.5,3.6c1.1,0,2-0.4,2.7-1.1c0.8-0.7,1.1-1.6,1.1-2.6c0-0.8-0.2-1.6-0.7-2.2c-0.5-0.6-1.5-1.3-2.9-1.9
			c-2.9-1.3-4.9-2.4-5.9-3.2c-1-0.8-1.8-1.7-2.3-2.7c-0.5-1-0.8-2-0.8-3.2c0-1.8,0.7-3.4,2-4.7c1.3-1.3,3.1-2,5.1-2.1v-1.8h3.5v2.1
			c1.2,0.3,2.2,0.7,3,1.1C104,98.1,105,98.9,106.1,100.1z"/>
	</g>
	<g>
		<circle class="st1" cx="100" cy="38.9" r="11.6"/>
	</g>
</g>
</svg>
