<?xml version="1.0" encoding="utf-8"?>
<!-- Generator: Adobe Illustrator 22.0.1, SVG Export Plug-In . SVG Version: 6.00 Build 0)  -->
<svg version="1.1" id="Capa_1" xmlns="http://www.w3.org/2000/svg" xmlns:xlink="http://www.w3.org/1999/xlink" x="0px" y="0px"
	 viewBox="0 0 200 200" style="enable-background:new 0 0 200 200;" xml:space="preserve">
<g>
	<path d="M134.7,149.7H66.8c-8.5,0-15.5-7-15.5-15.5v-0.3l0.1-0.3l11.4-56.2c0.8-4.1,4.5-7.1,8.7-7.1h9.2
		C81.1,59.5,89.8,51,100.5,51h0.5c10.7,0,19.4,8.5,19.8,19.1h9.2c4.2,0,7.9,3,8.7,7.1l0,0l11.4,56.6v0.3
		C150.2,142.7,143.3,149.7,134.7,149.7z M58.8,134.5c0.2,4.2,3.7,7.6,8,7.6h67.9c4.2,0,7.8-3.4,8-7.6l-11.3-55.8
		c-0.1-0.6-0.7-1.1-1.3-1.1h-7c0.1,0.4,0.1,0.9,0.1,1.3c0,4.5-3.6,8.1-8.1,8.1s-8.1-3.6-8.1-8.1c0-0.5,0.1-0.9,0.1-1.3H94.6
		c0.1,0.4,0.1,0.9,0.1,1.3c0,4.5-3.6,8.1-8.1,8.1c-4.5,0-8.1-3.6-8.1-8.1c0-0.5,0.1-0.9,0.1-1.3h-7.2c-0.6,0-1.2,0.5-1.3,1.1
		L58.8,134.5z M92.6,70.1H109c-0.3-4.1-3.8-7.3-8-7.3h-0.5C96.4,62.8,92.9,66,92.6,70.1z"/>
</g>
</svg>
