<?xml version="1.0" encoding="utf-8"?>
<!-- Generator: Adobe Illustrator 22.0.1, SVG Export Plug-In . SVG Version: 6.00 Build 0)  -->
<svg version="1.1" id="Capa_1" xmlns="http://www.w3.org/2000/svg" xmlns:xlink="http://www.w3.org/1999/xlink" x="0px" y="0px"
	 viewBox="0 0 56.7 56.7" style="enable-background:new 0 0 56.7 56.7;" xml:space="preserve">
<style type="text/css">
	.st0{fill:#2C2C2C;}
	.st1{fill:#A1B0CE;}
	.st2{fill:#E7EBF2;}
	.st3{fill:#A6B4D0;}
	.st4{fill-rule:evenodd;clip-rule:evenodd;fill:#FFFFFF;}
</style>
<ellipse transform="matrix(0.2298 -0.9732 0.9732 0.2298 -6.0187 50.3951)" class="st0" cx="28.8" cy="29" rx="25" ry="25"/>
<path class="st1" d="M28.3,29.2c0-0.1,0-0.2-0.1-0.4c0-0.7-0.1-1.5,0.3-2.2c0.1,0.1,0.2,0.2,0.4,0.3c0.8,0.6,0.1,1.5,0.3,2.2
	c-0.1,0-0.2,0-0.3,0C28.7,29.2,28.5,29.2,28.3,29.2z"/>
<path class="st2" d="M29.4,28.4c-0.2,0.4-0.3,0.8-0.5,1.2c-0.2-0.4-1.4-0.9,0-1.3C29.1,28.4,29.2,28.4,29.4,28.4z"/>
<path class="st3" d="M28.4,29.2c0.2,0,0.4,0,0.6,0c0.1,0.3,0.2,0.6,0.3,1c-0.3,0.2,0,0.4,0,0.6c-0.1,0.1-0.2,0.2-0.3,0.3
	c-0.3,0.1-0.3,0.4-0.3,0.6C28,31,28.5,30.1,28.4,29.2z"/>
<path class="st4" d="M24.7,29.1v15.3c0,0.2,0.2,0.4,0.4,0.4h5.7c0.2,0,0.4-0.2,0.4-0.4V28.9h4.1c0.2,0,0.4-0.2,0.4-0.4l0.4-4.7
	c0-0.2-0.2-0.4-0.4-0.4h-4.5v-3.3c0-0.8,0.6-1.4,1.4-1.4h3.2c0.2,0,0.4-0.2,0.4-0.4v-4.7c0-0.2-0.2-0.4-0.4-0.4h-5.4
	c-3.2,0-5.7,2.6-5.7,5.7v4.5h-2.8c-0.2,0-0.4,0.2-0.4,0.4v4.7c0,0.2,0.2,0.4,0.4,0.4h2.8V29.1z"/>
</svg>
