<?xml version="1.0" encoding="utf-8"?>
<!-- Generator: Adobe Illustrator 22.0.1, SVG Export Plug-In . SVG Version: 6.00 Build 0)  -->
<svg version="1.1" id="Capa_1" xmlns="http://www.w3.org/2000/svg" xmlns:xlink="http://www.w3.org/1999/xlink" x="0px" y="0px"
	 viewBox="0 0 56.7 56.7" style="enable-background:new 0 0 56.7 56.7;" xml:space="preserve">
<style type="text/css">
	.st0{fill:#2C2C2C;}
	.st1{fill:#FFFFFF;}
</style>
<ellipse transform="matrix(0.9239 -0.3827 0.3827 0.9239 -8.8947 13.2835)" class="st0" cx="28.9" cy="29" rx="25" ry="25"/>
<g>
	<circle class="st1" cx="37.8" cy="20.3" r="1.9"/>
	<path class="st1" d="M29.2,20.8c-4.5,0-8.2,3.7-8.2,8.2s3.7,8.2,8.2,8.2s8.2-3.7,8.2-8.2S33.7,20.8,29.2,20.8z M29.2,34.2
		c-2.9,0-5.2-2.3-5.2-5.2c0-2.9,2.3-5.2,5.2-5.2s5.2,2.3,5.2,5.2C34.4,31.9,32,34.2,29.2,34.2z"/>
	<g>
		<path class="st1" d="M35.6,45.6H22.4c-5.5,0-10-4.5-10-10V22.4c0-5.5,4.5-10,10-10h13.2c5.5,0,10,4.5,10,10v13.2
			C45.6,41.1,41.1,45.6,35.6,45.6z M22.4,15.6c-3.8,0-6.8,3.1-6.8,6.8v13.2c0,3.8,3.1,6.8,6.8,6.8h13.2c3.8,0,6.8-3.1,6.8-6.8V22.4
			c0-3.8-3.1-6.8-6.8-6.8H22.4z"/>
	</g>
</g>
</svg>
