<?xml version="1.0" encoding="utf-8"?>
<!-- Generator: Adobe Illustrator 22.0.1, SVG Export Plug-In . SVG Version: 6.00 Build 0)  -->
<svg version="1.1" id="Layer_1" xmlns="http://www.w3.org/2000/svg" xmlns:xlink="http://www.w3.org/1999/xlink" x="0px" y="0px"
	 viewBox="0 0 217.4 109.4" style="enable-background:new 0 0 217.4 109.4;" xml:space="preserve">
<style type="text/css">
	.st0{fill:#D3255C;}
	.st1{fill:#2C368B;}
	.st2{fill:url(#SVGID_1_);}
	.st3{fill:url(#SVGID_2_);}
	.st4{fill:url(#SVGID_3_);}
</style>
<g>
	<g>
		<path class="st0" d="M118.5,31c-0.5,0-0.8,0.2-1.2,0.5c-0.4,0.4-0.5,0.7-0.5,1.2c0,0.5,0.2,0.8,0.5,1.2c0.4,0.4,0.7,0.5,1.2,0.5
			s0.8-0.2,1.2-0.5c0.4-0.4,0.5-0.7,0.5-1.2c0-0.5-0.2-0.8-0.5-1.2C119.3,31.2,118.8,31,118.5,31"/>
		<path class="st0" d="M102.5,30.4L102.5,30.4c0-1.2-0.9-2.2-2.1-2.2s-2.1,0.9-2.1,2.1c0,0.1,0,0.2,0,0.2v24.3h15.4v-4.1h-11.2V30.4
			z"/>
		<path class="st0" d="M155.3,38.9c-0.8-0.9-1.8-1.5-3-2.2c-1.2-0.5-2.6-0.8-4.2-0.8s-2.8,0.2-3.8,0.6c-1,0.5-1.8,0.8-2.4,1.3
			c-0.7,0.6-1.3,1.3-1.6,2c-0.7-1.1-1.5-1.9-2.4-2.5c-0.9-0.5-1.8-1-2.6-1.2c-1-0.2-2-0.4-3-0.3c-1,0-1.8,0.1-2.7,0.3
			c-0.8,0.2-1.4,0.5-2,0.7s-1.2,0.7-1.7,1v-1.5h-3.4v18.3h3.4v-9.1c0.1-1.2,0.3-2.2,0.8-3.2c0.2-0.5,0.5-0.8,0.7-1.2
			c0.3-0.4,0.7-0.7,1.1-1c0.5-0.3,1-0.5,1.5-0.7c0.6-0.2,1.3-0.2,2.1-0.2c0.8,0,1.5,0.1,2.1,0.2c0.6,0.2,1.1,0.5,1.5,0.7
			c0.5,0.3,0.8,0.7,1.1,1c0.3,0.4,0.5,0.7,0.8,1.2c0.5,0.9,0.7,2,0.8,3.2v9.1h3.4v-9.1c0.1-1.2,0.3-2.2,0.8-3.2
			c0.2-0.5,0.5-0.8,0.7-1.2c0.3-0.4,0.7-0.7,1.1-1c0.5-0.3,1-0.5,1.5-0.7c0.6-0.2,1.3-0.2,2.1-0.2c0.8,0,1.5,0.1,2.1,0.2
			c0.6,0.2,1.1,0.5,1.5,0.7c0.5,0.3,0.8,0.7,1.1,1c0.3,0.4,0.5,0.7,0.8,1.2c0.5,0.9,0.7,2,0.8,3.2v9.1h3.4v-9.1
			c0-1.3-0.2-2.5-0.6-3.7C156.7,40.8,156,39.8,155.3,38.9"/>
		<path class="st0" d="M174.4,47.9c-0.4,0.7-0.8,1.4-1.5,2c-0.6,0.6-1.3,1.1-2,1.5c-0.7,0.4-1.5,0.5-2.3,0.5c-0.8,0-1.5-0.2-2.3-0.5
			c-0.7-0.4-1.4-0.8-2-1.5c-0.6-0.6-1.1-1.3-1.5-2c-0.4-0.7-0.5-1.5-0.5-2.3c0-0.8,0.2-1.5,0.5-2.3c0.4-0.7,0.8-1.4,1.5-2
			c0.6-0.6,1.3-1.1,2-1.5c0.7-0.4,1.5-0.5,2.3-0.5c0.8,0,1.5,0.2,2.3,0.5c0.7,0.4,1.4,0.8,2,1.5c0.6,0.6,1.1,1.3,1.5,2
			c0.4,0.7,0.5,1.5,0.5,2.3C175,46.4,174.8,47.2,174.4,47.9 M175,36.4v1.8c-0.3-0.2-0.6-0.5-1-0.8c-0.4-0.3-0.8-0.5-1.3-0.7
			c-0.5-0.2-1.1-0.5-1.8-0.5c-0.7-0.2-1.4-0.2-2.3-0.2c-1.3,0-2.6,0.2-3.8,0.8c-1.2,0.5-2.2,1.2-3.1,2.1c-0.8,0.8-1.5,1.8-2.1,3.1
			c-0.5,1.2-0.8,2.4-0.8,3.8c0,1.3,0.2,2.6,0.8,3.8c0.5,1.2,1.2,2.2,2.1,3.1c0.9,0.9,1.8,1.5,3.1,2.1c1.2,0.5,2.4,0.8,3.8,0.8
			c0.8,0,1.6-0.2,2.4-0.3c0.7-0.2,1.3-0.5,1.8-0.7c0.5-0.2,1-0.5,1.3-0.8c0.4-0.2,0.6-0.5,0.7-0.6v1.8h3.4V36.5H175L175,36.4
			L175,36.4z"/>
		<rect x="116.8" y="36.4" class="st0" width="3.4" height="18.3"/>
		<path class="st1" d="M127.1,70.5c-0.4,0.9-0.9,1.6-1.5,2.3c-0.7,0.7-1.4,1.2-2.3,1.5c-0.9,0.4-1.8,0.5-2.8,0.5
			c-1,0-1.9-0.2-2.8-0.5c-0.9-0.4-1.6-0.9-2.3-1.5c-0.7-0.7-1.2-1.4-1.5-2.3s-0.5-1.8-0.5-2.8s0.2-1.9,0.5-2.8
			c0.4-0.9,0.9-1.6,1.5-2.3c0.7-0.7,1.4-1.2,2.3-1.5c0.9-0.4,1.8-0.5,2.8-0.5c1,0,1.9,0.2,2.8,0.5c0.9,0.4,1.6,0.9,2.3,1.5
			s1.2,1.4,1.5,2.3c0.4,0.9,0.5,1.8,0.5,2.8C127.7,68.7,127.5,69.6,127.1,70.5 M128.3,59.8c-1-1-2.2-1.8-3.5-2.4
			c-1.3-0.6-2.8-0.9-4.4-0.9s-3,0.3-4.4,0.9c-1.3,0.6-2.5,1.4-3.5,2.4c-1,1-1.8,2.2-2.4,3.5c-0.6,1.3-0.9,2.8-0.9,4.4
			c0,1.6,0.3,3,0.9,4.4c0.6,1.3,1.4,2.5,2.4,3.5c1,1,2.2,1.8,3.5,2.4c1.3,0.6,2.8,0.9,4.4,0.9s3-0.3,4.4-0.9
			c1.3-0.6,2.5-1.4,3.5-2.4c1-1,1.8-2.2,2.4-3.5c0.6-1.3,0.9-2.8,0.9-4.4c0-1.5-0.3-2.9-0.9-4.3C130.1,62.1,129.3,60.9,128.3,59.8"
			/>
		<path class="st1" d="M139.1,62.6c0.7-0.7,1.4-1.2,2.3-1.5c0.9-0.4,1.8-0.5,2.8-0.5c1,0,1.8,0.2,2.7,0.5c0.8,0.2,1.5,0.7,2.2,1.2
			c0.6,0.5,1.2,1,1.5,1.7s0.5,1.3,0.5,2.1h4c0-1.3-0.3-2.5-0.8-3.5c-0.6-1.2-1.4-2.2-2.4-2.9c-1-0.8-2.2-1.5-3.5-2
			c-1.3-0.5-2.8-0.7-4.3-0.7s-3,0.3-4.4,0.9c-1.3,0.6-2.5,1.4-3.5,2.4c-1,1-1.8,2.2-2.4,3.5c-0.6,1.3-0.9,2.8-0.9,4.4
			c0,1.5,0.3,3,0.9,4.4c0.6,1.3,1.4,2.5,2.4,3.5c1,1,2.2,1.8,3.5,2.4c1.3,0.6,2.8,0.9,4.4,0.9c1.5,0,3-0.2,4.3-0.7s2.5-1.2,3.5-2
			c1-0.8,1.8-1.8,2.4-2.9c0.6-1.2,0.8-2.3,0.8-3.5h-4c0,0.7-0.2,1.5-0.5,2.1c-0.4,0.7-0.8,1.2-1.5,1.7c-0.6,0.5-1.4,0.8-2.2,1.2
			s-1.8,0.5-2.7,0.5c-1,0-1.9-0.2-2.8-0.5c-0.9-0.4-1.6-0.9-2.3-1.5c-0.7-0.7-1.2-1.4-1.5-2.3c-0.4-0.9-0.5-1.8-0.5-2.8
			c0-1,0.2-1.9,0.5-2.8C138,64,138.4,63.2,139.1,62.6"/>
		<path class="st1" d="M174.3,70.3c-0.5,0.8-1,1.6-1.6,2.3s-1.5,1.2-2.3,1.6c-0.8,0.5-1.8,0.6-2.7,0.6s-1.8-0.2-2.7-0.6
			c-0.8-0.5-1.6-1-2.3-1.6c-0.7-0.7-1.2-1.5-1.6-2.3c-0.5-0.8-0.6-1.8-0.6-2.7s0.2-1.8,0.6-2.7c0.5-0.8,1-1.6,1.6-2.3
			c0.7-0.7,1.5-1.2,2.3-1.6c0.8-0.4,1.8-0.6,2.7-0.6s1.8,0.2,2.7,0.6s1.6,1,2.3,1.6c0.7,0.7,1.2,1.5,1.6,2.3
			c0.5,0.8,0.6,1.8,0.6,2.7C174.9,68.6,174.6,69.4,174.3,70.3 M174.9,59.2c-0.3-0.3-0.7-0.6-1.2-0.9c-0.5-0.3-0.9-0.6-1.5-0.8
			s-1.3-0.5-2-0.7c-0.7-0.2-1.6-0.2-2.6-0.2c-1.5,0-3,0.3-4.4,0.9c-1.3,0.6-2.5,1.4-3.5,2.4c-1,1-1.8,2.2-2.4,3.5
			c-0.6,1.3-0.9,2.8-0.9,4.4c0,1.6,0.3,3,0.9,4.4c0.6,1.3,1.4,2.5,2.4,3.5c1,1,2.2,1.8,3.5,2.4c1.3,0.6,2.8,0.9,4.4,0.9
			c1,0,1.9-0.2,2.7-0.3c0.8-0.2,1.5-0.5,2.2-0.8s1.2-0.6,1.5-0.9c0.5-0.3,0.7-0.5,0.8-0.7v2.2h3.9V57.3h-3.9L174.9,59.2L174.9,59.2z
			"/>
		<path class="st1" d="M185.2,47.7c0-1.1-0.8-1.9-1.9-1.9c-1.1,0-1.9,0.9-1.9,1.9l0,0l0,0v30.5h3.9L185.2,47.7
			C185.1,47.7,185.2,47.7,185.2,47.7"/>
		<polygon class="st1" points="91.6,50.1 91.6,78.2 109.3,78.2 109.3,73.5 96.2,73.5 96.2,50.1 		"/>
	</g>
	
		<linearGradient id="SVGID_1_" gradientUnits="userSpaceOnUse" x1="33.5007" y1="388.8707" x2="64.4763" y2="388.8707" gradientTransform="matrix(1 0 0 1 0 -335.1836)">
		<stop  offset="0" style="stop-color:#313178"/>
		<stop  offset="0.9677" style="stop-color:#2C3589"/>
		<stop  offset="1" style="stop-color:#2B368A"/>
	</linearGradient>
	<path class="st2" d="M33.5,27.9L33.5,27.9l-0.1,53.8h31v-52l0,0l0,0c0-1.2-1.2-2.2-2.6-2.3l0,0l-24.3-1.7c-0.2-0.1-0.5-0.1-0.8-0.1
		C35,25.6,33.5,26.6,33.5,27.9"/>
	
		<linearGradient id="SVGID_2_" gradientUnits="userSpaceOnUse" x1="56.9397" y1="389.8336" x2="84.6134" y2="389.8336" gradientTransform="matrix(1 0 0 1 0 -335.1836)">
		<stop  offset="0" style="stop-color:#16B79D"/>
		<stop  offset="1" style="stop-color:#53C0AE"/>
	</linearGradient>
	<path class="st3" d="M57,20.3v71.6l27.7-5.4c0,0-0.1-58.9,0-61.3c0.1-2.4-1.2-2.9-2.5-3.2c-1.4-0.3-19.6-4.1-21.5-4.4
		c-0.3-0.1-0.6-0.2-0.9-0.2C58.1,17.5,57,18.3,57,20.3"/>
	
		<linearGradient id="SVGID_3_" gradientUnits="userSpaceOnUse" x1="33.5611" y1="422.0005" x2="56.9397" y2="422.0005" gradientTransform="matrix(1 0 0 1 0 -335.1836)">
		<stop  offset="0" style="stop-color:#FAAB31"/>
		<stop  offset="0.5875" style="stop-color:#F8A127"/>
		<stop  offset="0.9892" style="stop-color:#F7981D"/>
	</linearGradient>
	<polygon class="st4" points="57,81.7 37.5,81.7 33.5,81.7 56.9,91.9 56.9,91.9 57,91.8 	"/>
</g>
</svg>
