<?xml version="1.0" encoding="utf-8"?>
<!-- Generator: Adobe Illustrator 22.0.1, SVG Export Plug-In . SVG Version: 6.00 Build 0)  -->
<svg version="1.1" id="Capa_1" xmlns="http://www.w3.org/2000/svg" xmlns:xlink="http://www.w3.org/1999/xlink" x="0px" y="0px"
	 viewBox="0 0 155.9 155.9" style="enable-background:new 0 0 155.9 155.9;" xml:space="preserve">
<style type="text/css">
	.st0{fill:#262320;}
</style>
<g>
	<path class="st0" d="M36.1,83.6C28.8,77.2,24.7,68,24.7,58.4c0-9.3,3.9-18.3,10.7-24.6c1-0.9,1-2.4,0.1-3.4s-2.4-1-3.4-0.1
		c-7.8,7.2-12.2,17.5-12.2,28.1c0,11,4.7,21.5,13,28.8c0.5,0.4,1,0.6,1.6,0.6c0.7,0,1.3-0.3,1.8-0.8C37.2,86,37.1,84.5,36.1,83.6z"
		/>
	<circle class="st0" cx="40.1" cy="89.4" r="2.2"/>
	<path class="st0" d="M149.1,131.6l-34.2-34.2c-2.2-2.2-5.7-2.2-7.8,0l-3,3l-6.7-6.7C105.8,84.4,111,72,111,58.4
		c0-29.1-23.6-52.7-52.7-52.7C29.2,5.7,5.6,29.3,5.6,58.4s23.6,52.7,52.7,52.7c13.8,0,26.3-5.3,35.7-14l6.7,6.7l-3,3
		c-1,1-1.6,2.4-1.6,3.9s0.6,2.9,1.6,3.9l34.2,34.2c1,1,2.4,1.6,3.9,1.6s2.9-0.6,3.9-1.6l9.4-9.4c1-1,1.6-2.4,1.6-3.9
		C150.8,134,150.2,132.6,149.1,131.6z M58.3,106.3c-26.4,0-47.9-21.5-47.9-47.9s21.5-47.9,47.9-47.9s47.9,21.5,47.9,47.9
		S84.7,106.3,58.3,106.3z M145.8,136l-9.4,9.4c-0.2,0.2-0.4,0.2-0.5,0.2s-0.3,0-0.5-0.2l-34.2-34.2c-0.2-0.2-0.2-0.4-0.2-0.5
		s0-0.3,0.2-0.5l9.4-9.4c0.1-0.1,0.3-0.2,0.5-0.2s0.4,0.1,0.5,0.2l34.2,34.2c0.2,0.2,0.2,0.4,0.2,0.5
		C146,135.6,145.9,135.8,145.8,136z"/>
</g>
</svg>
