<?xml version="1.0" encoding="utf-8"?>
<!-- Generator: Adobe Illustrator 22.0.1, SVG Export Plug-In . SVG Version: 6.00 Build 0)  -->
<svg version="1.1" id="Capa_1" xmlns="http://www.w3.org/2000/svg" xmlns:xlink="http://www.w3.org/1999/xlink" x="0px" y="0px"
	 viewBox="0 0 200 200" style="enable-background:new 0 0 200 200;" xml:space="preserve">
<style type="text/css">
	.st0{fill:#2C2C2C;}
</style>
<g>
	<path class="st0" d="M140.8,76.8H59.2c-0.9,0-1.6-0.7-1.6-1.6v-9.3c0-0.9,0.7-1.6,1.6-1.6h81.7c0.9,0,1.6,0.7,1.6,1.6v9.3
		C142.4,76.1,141.7,76.8,140.8,76.8z"/>
	<path class="st0" d="M140.8,96.4H59.2c-0.9,0-1.6-0.7-1.6-1.6v-9.3c0-0.9,0.7-1.6,1.6-1.6h81.7c0.9,0,1.6,0.7,1.6,1.6v9.3
		C142.4,95.8,141.7,96.4,140.8,96.4z"/>
	<path class="st0" d="M140.8,116.1H59.2c-0.9,0-1.6-0.7-1.6-1.6v-9.3c0-0.9,0.7-1.6,1.6-1.6h81.7c0.9,0,1.6,0.7,1.6,1.6v9.3
		C142.4,115.4,141.7,116.1,140.8,116.1z"/>
	<path class="st0" d="M140.8,135.7H59.2c-0.9,0-1.6-0.7-1.6-1.6v-9.3c0-0.9,0.7-1.6,1.6-1.6h81.7c0.9,0,1.6,0.7,1.6,1.6v9.3
		C142.4,135,141.7,135.7,140.8,135.7z"/>
</g>
</svg>
