<?xml version="1.0" encoding="utf-8"?>
<!-- Generator: Adobe Illustrator 22.0.1, SVG Export Plug-In . SVG Version: 6.00 Build 0)  -->
<svg version="1.1" id="Capa_1" xmlns="http://www.w3.org/2000/svg" xmlns:xlink="http://www.w3.org/1999/xlink" x="0px" y="0px"
	 viewBox="0 0 200 200" style="enable-background:new 0 0 200 200;" xml:space="preserve">
<style type="text/css">
	.st0{fill:#EA6B3F;}
	.st1{fill:#0F2F80;}
	.st2{fill:#2979B1;}
	.st3{fill:#FFFFFF;}
</style>
<g>
	<g>
		<polygon class="st0" points="35.9,88.5 35.9,98.4 35.9,100.9 35.9,110.9 90.6,140.3 90.6,100.9 90.6,98.4 90.6,59 		"/>
	</g>
	<g>
		<path class="st1" d="M39.2,119.6H19.3V79.8h19.9V119.6z M24.2,114.6h10V84.7h-10V114.6z"/>
	</g>
	<g>
		<path class="st1" d="M105.1,150.7H87.7V51.1h17.4V150.7z M92.7,145.7h7.5V56.1h-7.5V145.7z"/>
	</g>
	<g>
		<polygon class="st1" points="112,82.7 108.3,79.3 131.4,53.6 147.5,53.6 147.5,58.6 133.6,58.6 		"/>
	</g>
	<g>
		<polygon class="st1" points="148.7,145.7 132.7,145.7 109.5,120 113.2,116.7 134.9,140.8 148.7,140.8 		"/>
	</g>
	<g>
		<rect x="110.1" y="98.4" class="st1" width="34.8" height="5"/>
	</g>
	<g>
		<rect x="150.8" y="128.6" class="st2" width="29.9" height="29.9"/>
	</g>
	<g>
		<g>
			<g>
				<rect x="157" y="135.5" class="st3" width="17.4" height="5"/>
			</g>
		</g>
		<g>
			<g>
				<rect x="157" y="146.7" class="st3" width="17.4" height="5"/>
			</g>
		</g>
	</g>
	<g>
		<rect x="150.8" y="83.8" class="st2" width="29.9" height="29.9"/>
	</g>
	<g>
		<g>
			<g>
				<rect x="157" y="90.7" class="st3" width="17.4" height="5"/>
			</g>
		</g>
		<g>
			<g>
				<rect x="157" y="101.9" class="st3" width="17.4" height="5"/>
			</g>
		</g>
	</g>
	<g>
		<rect x="150.8" y="41.5" class="st2" width="29.9" height="29.9"/>
	</g>
	<g>
		<g>
			<g>
				<rect x="157" y="48.3" class="st3" width="17.4" height="5"/>
			</g>
		</g>
		<g>
			<g>
				<rect x="157" y="59.5" class="st3" width="17.4" height="5"/>
			</g>
		</g>
	</g>
</g>
</svg>
