<?xml version="1.0" encoding="utf-8"?>
<!-- Generator: Adobe Illustrator 22.0.1, SVG Export Plug-In . SVG Version: 6.00 Build 0)  -->
<svg version="1.1" id="Capa_1" xmlns="http://www.w3.org/2000/svg" xmlns:xlink="http://www.w3.org/1999/xlink" x="0px" y="0px"
	 viewBox="0 0 200 200" style="enable-background:new 0 0 200 200;" xml:space="preserve">
<style type="text/css">
	.st0{fill:#A0D0ED;}
	.st1{fill:#243774;}
	.st2{fill:#FFFFFF;}
	.st3{fill:#EB6B3F;}
	.st4{fill:#2FAF94;}
</style>
<g>
	<g>
		<rect x="34.4" y="53.4" class="st0" width="81.5" height="94.5"/>
	</g>
	<g>
		<path class="st1" d="M102.2,179.3h-54c-9.6,0-17.4-7.8-17.4-17.4V38.4c0-9.6,7.8-17.4,17.4-17.4h54c9.6,0,17.4,7.8,17.4,17.4
			v123.5C119.6,171.5,111.8,179.3,102.2,179.3z M48.2,25.8c-6.9,0-12.6,5.6-12.6,12.6v123.5c0,6.9,5.6,12.6,12.6,12.6h54
			c6.9,0,12.6-5.6,12.6-12.6V38.4c0-6.9-5.6-12.6-12.6-12.6H48.2z"/>
	</g>
	<g>
		<rect x="63.2" y="160.1" class="st1" width="24" height="4.8"/>
	</g>
	<g>
		<circle class="st1" cx="75.2" cy="41.4" r="3.6"/>
	</g>
	<g>
		<rect x="33.2" y="49.8" class="st1" width="83.9" height="4.8"/>
	</g>
	<g>
		<rect x="34.4" y="145.7" class="st1" width="81.5" height="4.8"/>
	</g>
	<g>
		<rect x="65.7" y="66.6" class="st2" width="99.4" height="66.3"/>
		<g>
			<g>
				<rect x="78.8" y="119.9" class="st1" width="14.4" height="4.8"/>
			</g>
			<g>
				<rect x="98.4" y="119.9" class="st1" width="14.4" height="4.8"/>
			</g>
			<g>
				<rect x="118" y="119.9" class="st1" width="14.4" height="4.8"/>
			</g>
			<g>
				<rect x="137.6" y="119.9" class="st1" width="14.4" height="4.8"/>
			</g>
		</g>
		<g>
			<rect x="66.2" y="76.2" class="st3" width="98.3" height="14.4"/>
		</g>
		<g>
			<g>
				<rect x="77" y="98.9" class="st4" width="36" height="12"/>
			</g>
			<g>
				<rect x="137" y="98.9" class="st4" width="16.8" height="12"/>
			</g>
		</g>
		<g>
			<path class="st1" d="M161.4,136.1H69.4c-3.7,0-6.8-3-6.8-6.8V71c0-3.7,3-6.8,6.8-6.8h91.9c3.7,0,6.8,3,6.8,6.8v58.4
				C168.2,133.1,165.1,136.1,161.4,136.1z M69.4,69c-1.1,0-2,0.9-2,2v58.4c0,1.1,0.9,2,2,2h91.9c1.1,0,2-0.9,2-2V71c0-1.1-0.9-2-2-2
				H69.4z"/>
		</g>
	</g>
</g>
</svg>
