<?xml version="1.0" encoding="utf-8"?>
<!-- Generator: Adobe Illustrator 22.0.1, SVG Export Plug-In . SVG Version: 6.00 Build 0)  -->
<svg version="1.1" id="Capa_1" xmlns="http://www.w3.org/2000/svg" xmlns:xlink="http://www.w3.org/1999/xlink" x="0px" y="0px"
	 viewBox="0 0 200 200" style="enable-background:new 0 0 200 200;" xml:space="preserve">
<style type="text/css">
	.st0{fill:#243774;}
	.st1{fill:#EB6B3F;}
</style>
<g>
	<g>
		<path class="st0" d="M167.6,154H32.5c-7.3,0-13.3-5.9-13.3-13.3v-103c0-7.3,5.9-13.3,13.3-13.3h135.1c7.3,0,13.3,5.9,13.3,13.3
			v103C180.8,148.1,174.9,154,167.6,154z M32.5,29.4c-4.6,0-8.3,3.7-8.3,8.3v103c0,4.6,3.7,8.3,8.3,8.3h135.1c4.6,0,8.3-3.7,8.3-8.3
			v-103c0-4.6-3.7-8.3-8.3-8.3H32.5z"/>
	</g>
	<g>
		<path class="st1" d="M164.2,39.3H35.9v29.6H36c0,0.4-0.1,0.8-0.1,1.2c0,5.8,4.7,10.5,10.5,10.5s10.5-4.7,10.5-10.5
			c0-0.4-0.1-0.8-0.1-1.2h0.7c0,0.4-0.1,0.8-0.1,1.2c0,5.8,4.7,10.5,10.5,10.5s10.5-4.7,10.5-10.5c0-0.4-0.1-0.8-0.1-1.2H79
			c0,0.4-0.1,0.8-0.1,1.2c0,5.8,4.7,10.5,10.5,10.5c5.8,0,10.5-4.7,10.5-10.5c0-0.4-0.1-0.8-0.1-1.2h0.7c0,0.4-0.1,0.8-0.1,1.2
			c0,5.8,4.7,10.5,10.5,10.5s10.5-4.7,10.5-10.5c0-0.4-0.1-0.8-0.1-1.2h0.7c0,0.4-0.1,0.8-0.1,1.2c0,5.8,4.7,10.5,10.5,10.5
			c5.8,0,10.5-4.7,10.5-10.5c0-0.4-0.1-0.8-0.1-1.2h0.7c0,0.4-0.1,0.8-0.1,1.2c0,5.8,4.7,10.5,10.5,10.5s10.5-4.7,10.5-10.5
			c0-0.4-0.1-0.8-0.1-1.2h0.1V39.3z"/>
		<g>
			<g>
				<rect x="79.1" y="89.6" class="st0" width="44.4" height="4.9"/>
			</g>
			<g>
				<rect x="79.1" y="101.3" class="st0" width="83.9" height="4.9"/>
			</g>
			<g>
				<rect x="79.1" y="113" class="st0" width="83.9" height="4.9"/>
			</g>
		</g>
		<g>
			<path class="st0" d="M65.5,118.6H35.9V89h29.6V118.6z M40.8,113.6h19.7V93.9H40.8V113.6z"/>
		</g>
	</g>
	<g>
		<rect x="22.3" y="128.1" class="st0" width="155.4" height="4.9"/>
	</g>
	<polygon class="st0" points="124.7,170.1 124.7,160.2 119.8,160.2 119.8,170.1 80.3,170.1 80.3,160.2 75.4,160.2 75.4,170.1 
		65.5,170.1 65.5,175 134.6,175 134.6,170.1 	"/>
</g>
</svg>
