<?xml version="1.0" encoding="utf-8"?>
<!-- Generator: Adobe Illustrator 21.1.0, SVG Export Plug-In . SVG Version: 6.00 Build 0)  -->
<svg version="1.1" id="Capa_1" xmlns="http://www.w3.org/2000/svg" xmlns:xlink="http://www.w3.org/1999/xlink" x="0px" y="0px"
	 viewBox="0 0 15 15" style="enable-background:new 0 0 15 15;" xml:space="preserve">
<style type="text/css">
	.st0{fill:#646464;}
</style>
<g>
	<path class="st0" d="M11.2,1.5h-0.6V1.4c0-0.4-0.3-0.6-0.6-0.6H5C4.7,0.7,4.4,1,4.4,1.4v0.1H3.8c-0.7,0-1.3,0.6-1.3,1.3v0.9h10V2.8
		C12.5,2.1,11.9,1.5,11.2,1.5z"/>
	<path class="st0" d="M11,12.2c0,0.4-0.3,0.7-0.7,0.7h-0.1V4.8H9v8.1h-1V4.8H6.9v8.1H6V4.8H4.8v8.1H4.7c-0.4,0-0.7-0.3-0.7-0.7V4.8
		H2.5V13c0,0.7,0.6,1.3,1.3,1.3h7.5c0.7,0,1.3-0.6,1.3-1.3V4.8H11V12.2z"/>
</g>
</svg>
