<?xml version="1.0" encoding="utf-8"?>
<!-- Generator: Adobe Illustrator 21.1.0, SVG Export Plug-In . SVG Version: 6.00 Build 0)  -->
<svg version="1.1" id="Capa_1" xmlns="http://www.w3.org/2000/svg" xmlns:xlink="http://www.w3.org/1999/xlink" x="0px" y="0px"
	 viewBox="0 0 55 55" style="enable-background:new 0 0 55 55;" xml:space="preserve">
<style type="text/css">
	.st0{fill:#2C2C2C;}
</style>
<path class="st0" d="M27.5,4.5c-12.7,0-23,10.3-23,23s10.3,23,23,23s23-10.3,23-23S40.2,4.5,27.5,4.5z M27.2,36.8
	c-2.3,0-4.7-0.7-6.3-1.8l0.9-1.7c1.4,1.1,3.4,1.7,5.3,1.7c3.2,0,5.1-1.5,5.1-3.8s-1.9-3.5-5.1-3.5h-2.4v-1.3l6.1-6h-8.9v-1.9h11.5
	v1.4L27,26.2l1.1,0.1c3.7,0.1,6.1,1.9,6.1,4.8C34.2,34.5,31.5,36.8,27.2,36.8z"/>
</svg>
