<?xml version="1.0" encoding="utf-8"?>
<!-- Generator: Adobe Illustrator 22.0.1, SVG Export Plug-In . SVG Version: 6.00 Build 0)  -->
<svg version="1.1" id="Capa_1" xmlns="http://www.w3.org/2000/svg" xmlns:xlink="http://www.w3.org/1999/xlink" x="0px" y="0px"
	 viewBox="0 0 56.7 56.7" style="enable-background:new 0 0 56.7 56.7;" xml:space="preserve">
<style type="text/css">
	.st0{fill:#2C2C2C;}
	.st1{fill:#FFFFFF;}
	.st2{fill-rule:evenodd;clip-rule:evenodd;fill:#FFFFFF;}
</style>
<ellipse transform="matrix(0.2106 -0.9776 0.9776 0.2106 -6.111 50.4325)" class="st0" cx="28.2" cy="29" rx="25" ry="25"/>
<g>
	<path class="st1" d="M43.4,19.4c-1,0.4-2.1,0.7-3.1,0.9c0.5-0.1,1.2-1,1.5-1.4c0.5-0.6,0.8-1.2,1-1.9c0-0.1,0-0.1,0-0.2
		c-0.1,0-0.1,0-0.2,0c-1.2,0.6-2.4,1.1-3.7,1.4c-0.1,0-0.2,0-0.3-0.1c-0.1-0.1-0.2-0.2-0.3-0.3c-0.5-0.5-1.1-0.8-1.8-1.1
		c-0.9-0.4-1.8-0.5-2.7-0.4c-0.9,0.1-1.8,0.3-2.6,0.7c-0.8,0.4-1.5,1-2.1,1.7c-0.6,0.7-1,1.6-1.3,2.5c-0.2,0.9-0.2,1.8-0.1,2.7
		c0,0.1,0,0.2-0.1,0.1c-5.1-0.8-9.3-2.6-12.7-6.5c-0.1-0.2-0.2-0.2-0.4,0c-1.5,2.2-0.8,5.8,1.1,7.6c0.2,0.2,0.5,0.5,0.8,0.7
		c-0.1,0-1.3-0.1-2.4-0.7c-0.1-0.1-0.2,0-0.2,0.1c0,0.2,0,0.5,0,0.7c0.3,2.3,1.9,4.4,4,5.2c0.3,0.1,0.5,0.2,0.8,0.2
		c-0.5,0.1-1,0.2-2.4,0.1c-0.2,0-0.2,0.1-0.2,0.2c1.1,2.9,3.3,3.7,5,4.2c0.2,0,0.5,0,0.7,0.1c0,0,0,0,0,0c-0.6,0.9-2.5,1.5-3.4,1.8
		c-1.7,0.6-3.5,0.8-5.2,0.7c-0.3,0-0.3,0-0.4,0c-0.1,0,0,0.1,0.1,0.2c0.4,0.2,0.7,0.4,1.1,0.6c1.1,0.6,2.3,1.1,3.5,1.4
		c6.3,1.7,13.4,0.5,18.1-4.2c3.7-3.7,5-8.8,5-13.9c0-0.2,0.2-0.3,0.4-0.4c1-0.7,1.7-1.6,2.5-2.6c0.2-0.2,0.2-0.4,0.2-0.5
		c0,0,0,0,0,0C43.5,19.3,43.5,19.3,43.4,19.4z"/>
	<path class="st2" d="M21.8,41.6C24.4,41.6,21.9,41.6,21.8,41.6C22.2,41.6,21.8,41.6,21.8,41.6z"/>
	<path class="st2" d="M21.8,41.6C21.8,41.6,21.3,41.6,21.8,41.6C21.8,41.6,21.7,41.6,21.8,41.6z"/>
	<path class="st2" d="M22.9,41.6C22.9,41.5,23.4,41.6,22.9,41.6C22.9,41.6,22.9,41.6,22.9,41.6z"/>
	<path class="st2" d="M33.8,16.4c0,0-0.1,0-0.1,0C33.7,16.4,33.7,16.4,33.8,16.4z"/>
</g>
</svg>
