<?xml version="1.0" encoding="utf-8"?>
<!-- Generator: Adobe Illustrator 22.0.1, SVG Export Plug-In . SVG Version: 6.00 Build 0)  -->
<svg version="1.1" id="Capa_1" xmlns="http://www.w3.org/2000/svg" xmlns:xlink="http://www.w3.org/1999/xlink" x="0px" y="0px"
	 viewBox="0 0 200 200" style="enable-background:new 0 0 200 200;" xml:space="preserve">
<style type="text/css">
	.st0{fill-rule:evenodd;clip-rule:evenodd;fill:#FFFFFF;stroke:#919191;stroke-miterlimit:10;}
	.st1{fill:none;}
	.st2{fill-rule:evenodd;clip-rule:evenodd;fill:#1B9D38;}
</style>
<path class="st0" d="M100,4C47,4,4,47,4,100c0,19.1,5.6,36.9,15.2,51.9l-10,40.2l39.4-11C63.5,190.5,81.1,196,100,196
	c53,0,96-43,96-96S153,4,100,4z"/>
<g>
	<g>
		<rect x="29.8" y="29.4" class="st1" width="140.4" height="141.1"/>
		<path class="st2" d="M29.8,170.6c0.8-3,1.5-5.7,2.2-8.3c2.3-8.5,4.7-16.9,6.9-25.4c0.3-1.3,0.2-3-0.4-4.1
			C16.9,91.6,39.2,42,84.4,31.4c41-9.6,78,18.1,84.7,55.1c7,38.6-18.3,75.3-56.6,82.1c-15.2,2.6-29.8,0.4-43.7-6.4
			c-1.2-0.6-3-0.8-4.3-0.5C45.9,166.4,33.5,169.8,29.8,170.6 M46.1,154.5c7-1.8,13.4-3.4,19.8-5.2c1.8-0.5,3.2-0.2,4.8,0.7
			c12,6.9,25,9.5,38.7,7.3c31.8-5.1,53.5-34.8,48.7-66.5C153,58,122.3,36,89.8,42C50.4,49.2,29.6,93,49.1,127.7
			c2.2,3.8,2.8,7,1.3,11.1C48.7,143.8,47.6,148.9,46.1,154.5"/>
		<path class="st2" d="M118.5,133c-13.7-0.5-35.4-11.3-50.4-37.2c-5.3-9.2-4.5-19.7,3.2-26.9c2.6-2.5,5.9-1.9,9-1.3
			c0.7,0.1,1.6,1.3,1.9,2.1c2,4.5,3.9,9,5.7,13.7c0.9,2.5-0.8,4.7-4.3,8.8c-1.1,1.3-1.3,2.5-0.5,4c5.7,9.7,13.7,16.8,24.3,20.9
			c1.5,0.6,2.7,0.2,3.7-1c5.6-6.8,6.2-8.8,9.1-7.4c14.2,6.8,15.3,7.1,15.3,8.6C136,129.2,125.1,133.5,118.5,133"/>
	</g>
</g>
</svg>
