<?xml version="1.0" encoding="utf-8"?>
<!-- Generator: Adobe Illustrator 23.0.0, SVG Export Plug-In . SVG Version: 6.00 Build 0)  -->
<svg version="1.1" id="Capa_1" xmlns="http://www.w3.org/2000/svg" xmlns:xlink="http://www.w3.org/1999/xlink" x="0px" y="0px"
	 viewBox="0 0 510 527" style="enable-background:new 0 0 510 527;" xml:space="preserve">
<style type="text/css">
	.st0{fill:#FFFFFF;stroke:#000000;stroke-width:0.25;stroke-miterlimit:10;}
	.st1{fill:url(#SVGID_1_);}
	.st2{fill:#FFFFFF;}
</style>
<g>
	<g>
		<g>
			<g>
				<path class="st0" d="M66.5,263.7c0,103.8,84.2,188,188,188c33.6,0,58.2-5.1,85.5-20.6l102.5,20.5l-17.4-109
					c16.7-28,17.4-44,17.4-79c0-103.8-84.2-188-188-188S66.5,159.9,66.5,263.7z"/>
				
					<linearGradient id="SVGID_1_" gradientUnits="userSpaceOnUse" x1="311.7813" y1="672.7509" x2="180.809" y2="999.2013" gradientTransform="matrix(-1 0 0 1 509 -552)">
					<stop  offset="0" style="stop-color:#4BC25A"/>
					<stop  offset="1" style="stop-color:#368C41"/>
				</linearGradient>
				<path class="st1" d="M105.7,263.6c0,82.3,66.7,148.9,148.9,148.9c26.6,0,51.6-7,73.2-19.2L394,403l-11.3-63.5
					c13.1-22.2,20.7-48.1,20.7-75.8c0-82.3-66.7-148.9-148.9-148.9S105.7,181.3,105.7,263.6z"/>
			</g>
		</g>
	</g>
	<path class="st2" d="M337.9,331.4c-2.4,5.2-7.8,9.8-15.9,13.7c-8.3,3.9-15.7,5.8-22.2,5.8c-1.8,0-3.8-0.1-5.8-0.4
		c-2.1-0.2-3.8-0.5-5.2-0.8c-1.4-0.3-3.3-0.8-5.6-1.5c-2.3-0.7-4-1.3-5-1.7s-2.9-1.1-5.6-2.1c-2.7-1.1-4.4-1.7-5.1-1.9
		c-18.6-6.8-36.7-19.1-54.5-36.8s-30.1-35.9-36.9-54.5c-0.3-0.7-0.9-2.4-1.9-5.1c-1-2.7-1.7-4.6-2.1-5.6c-0.4-1-1-2.7-1.7-5
		s-1.2-4.2-1.5-5.6c-0.2-1.4-0.5-3.2-0.8-5.2c-0.3-2.1-0.4-4-0.4-5.8c0-6.5,1.9-13.9,5.8-22.2c3.8-8.4,8.4-13.7,13.6-16.1
		c6-2.5,11.8-3.8,17.2-3.8c1.2,0,2.1,0.1,2.7,0.3c0.6,0.3,1.5,1.3,2.8,3.1c1.4,1.8,2.8,4.1,4.3,6.9s3,5.5,4.5,8.1
		c1.5,2.6,2.9,5.1,4.3,7.7c1.3,2.5,2.2,4.1,2.5,4.8c0.3,0.5,1.1,1.6,2.2,3.2s1.9,3.1,2.5,4.3c0.6,1.3,0.9,2.5,0.9,3.6
		c0,1.7-1.2,3.8-3.5,6.2c-2.4,2.4-4.9,4.7-7.7,6.7c-2.8,2-5.4,4.2-7.7,6.5s-3.5,4.2-3.5,5.7c0,0.8,0.2,1.7,0.6,2.8
		c0.4,1,0.8,1.9,1.1,2.6c0.3,0.7,0.9,1.7,1.6,2.9c0.7,1.3,1.2,2.1,1.4,2.4c6.2,11.2,13.4,20.9,21.5,29s17.8,15.3,29,21.5
		c0.4,0.2,1.1,0.7,2.4,1.4c1.3,0.7,2.2,1.3,2.9,1.6c0.6,0.3,1.5,0.7,2.6,1.1s2,0.6,2.8,0.6c1.8,0,4.3-1.9,7.5-5.6
		c3.2-3.7,6.4-7.4,9.7-11.1c3.3-3.7,6-5.5,8-5.5c1.2,0,2.3,0.2,3.6,0.8c1.3,0.6,2.7,1.5,4.3,2.6c1.5,1.1,2.6,1.9,3.2,2.2l9,4.9
		c6,3.2,11.1,6,15.1,8.4s6.2,4.1,6.5,5c0.2,0.5,0.3,1.5,0.3,2.7C341.7,319.7,340.4,325.4,337.9,331.4L337.9,331.4z"/>
</g>
</svg>
