<?xml version="1.0" encoding="utf-8"?>
<!-- Generator: Adobe Illustrator 22.0.1, SVG Export Plug-In . SVG Version: 6.00 Build 0)  -->
<svg version="1.1" id="Capa_1" xmlns="http://www.w3.org/2000/svg" xmlns:xlink="http://www.w3.org/1999/xlink" x="0px" y="0px"
	 viewBox="0 0 56.7 56.7" style="enable-background:new 0 0 56.7 56.7;" xml:space="preserve">
<style type="text/css">
	.st0{fill:#2C2C2C;}
	.st1{fill:#FFFFFF;}
</style>
<ellipse transform="matrix(0.7071 -0.7071 0.7071 0.7071 -12.2884 28.3332)" class="st0" cx="28.1" cy="29" rx="25" ry="25"/>
<g>
	<path class="st1" d="M43.9,25c0-3.7-3-6.8-6.8-6.8H19.5c-3.7,0-6.8,3-6.8,6.8v8.2c0,3.7,3,6.8,6.8,6.8h17.6c3.7,0,6.8-3,6.8-6.8V25
		z M32.8,29.5l-7,3.8c-0.3,0.2-0.6-0.1-0.6-0.4v-7.9c0-0.4,0.3-0.6,0.6-0.4l7.1,4.1C33.1,28.9,33.1,29.4,32.8,29.5z"/>
</g>
</svg>
